<?xml version="1.0" encoding="UTF-8"?><svg id="Calque_2" xmlns="http://www.w3.org/2000/svg" xmlns:xlink="http://www.w3.org/1999/xlink" viewBox="0 0 63.85 91.38"><defs><radialGradient id="Dégradé_sans_nom_51" cx="-85.38" cy="91.28" fx="-85.38" fy="91.28" r="13.59" gradientTransform="translate(138.14 135.53) scale(1.21 -1)" gradientUnits="userSpaceOnUse"><stop offset="0" stop-color="#000" stop-opacity=".3"/><stop offset="1" stop-color="#000" stop-opacity="0"/></radialGradient></defs><g id="Calque_1-2"><g id="poses"><g id="arm_0_Layer0_0_FILL"><path d="M56.8,57.09c-1.08-2.19-2.38-4.3-3.91-6.31-3.61,1.3-6.78,3.72-9.51,7.27.66.83,1.26,1.69,1.79,2.57,1.26,2.01,2.15,4.22,2.69,6.64.34,1.57,1.19,2.8,2.56,3.69,1.4.85,2.9,1.12,4.51.81,1.57-.37,2.79-1.26,3.68-2.66.89-1.34,1.17-2.82.82-4.46-.44-1.89-1.01-3.69-1.7-5.39-.28-.74-.6-1.46-.94-2.16Z" fill="#bf7958"/><path d="M41.84,43.05c-1.62.21-2.94.96-3.98,2.24-1,1.31-1.37,2.76-1.13,4.35.18,1.62.89,2.93,2.14,3.94,1.76,1.35,3.26,2.84,4.51,4.48,2.73-3.55,5.9-5.97,9.51-7.27-1.9-2.37-4.13-4.56-6.7-6.55-1.27-.93-2.72-1.33-4.35-1.18Z" fill="#e7f3fc"/></g><g id="arm_0_Layer0_1_FILL"><path d="M55.42,51.41l-2.43-3.35-12,8.85,2.37,3.31,12.05-8.81Z" fill="#bfd4e5"/></g><g id="hand_0_Layer0_0_FILL"><path d="M47.88,75.8l-.31-.9c-.83-4.06-.51-7.48.97-10.27-4.36,5.74-4.59,9.48-.69,11.23l.03-.06Z" fill="#a8603f"/><path d="M60.84,62.41c-.28-.85-.89-1.15-1.82-.88l-10.49,3.1c-1.48,2.79-1.8,6.21-.97,10.27l.31.9-.03.06c.27,1.06.6,2.18.98,3.36l.11.38c.26.9,1.12,1.27,2.56,1.13,2.14-.14,4.17-.5,6.08-1.09,5.43-1.61,6.6-7.07,3.51-16.37l-.25-.86Z" fill="#bf7958"/></g><g id="arm_0_Layer0_0_FILL-2"><path d="M8.51,55.57c1.6-1.85,3.4-3.55,5.39-5.11,3.16,2.18,5.61,5.33,7.35,9.46-.85.64-1.65,1.31-2.39,2.03-1.73,1.62-3.16,3.54-4.29,5.74-.73,1.43-1.87,2.41-3.42,2.92-1.57.47-3.1.35-4.57-.36-1.42-.76-2.38-1.93-2.88-3.52-.52-1.52-.41-3.03.35-4.53.91-1.72,1.92-3.32,3.02-4.79.46-.64.95-1.26,1.46-1.85Z" fill="#bf7958"/><path d="M26.56,45.8c1.51.62,2.6,1.68,3.28,3.19.63,1.53.62,3.02-.01,4.49-.59,1.52-1.61,2.61-3.07,3.26-2.04.86-3.88,1.92-5.51,3.19-1.73-4.13-4.18-7.28-7.35-9.46,2.44-1.81,5.16-3.36,8.15-4.64,1.47-.58,2.98-.59,4.51-.04Z" fill="#e7f3fc"/></g><g id="arm_0_Layer0_1_FILL-2"><path d="M11.29,50.43l3.2-2.63,9.35,11.62-3.14,2.6-9.42-11.59Z" fill="#bfd4e5"/></g><g id="hand_0_Layer0_0_FILL-2"><path d="M13.81,77.39l.53-.79c1.84-3.71,2.4-7.11,1.68-10.18,2.76,6.67,2.03,10.35-2.2,11.04l-.02-.07Z" fill="#a8603f"/><path d="M4.69,61.13c.49-.75,1.15-.88,1.98-.39l9.36,5.68c.72,3.08.16,6.47-1.68,10.18l-.53.79.02.07c-.54.96-1.14,1.96-1.8,3l-.21.34c-.48.8-1.4.95-2.77.44-2.04-.68-3.91-1.55-5.61-2.61-4.84-2.94-4.58-8.52.78-16.73l.46-.77Z" fill="#bf7958"/></g><g id="legBend_0_Layer0_0_FILL"><path d="M26.9,81.88c2.33-.54,4.36-1.26,6.09-2.16l-7.22-10.65c-.76.77-1.76,1.34-3.01,1.72l4.14,11.1Z" fill="#4c4eaa"/><path d="M19.43,88.05l3.11-.29-5.61-16.5-3.45.28,5.94,16.51Z" fill="#eea160"/><path d="M22.54,87.76l4.37-5.88-4.14-11.1-5.83.48,5.61,16.5Z" fill="#fff"/><path d="M38.44,64.09c-1.15-1.31-2.6-2.15-4.35-2.53-1.79-.37-3.35-.16-4.7.63-1.32.78-2.04,1.93-2.18,3.46-.11,1.38-.57,2.51-1.39,3.4h-.05s7.22,10.67,7.22,10.67c4.28-2.4,6.62-6.18,7.02-11.35.14-1.53-.39-2.95-1.58-4.28Z" fill="#676ac6"/></g><g id="leg_0_Layer0_0_FILL"><path d="M47.85,82.38l.16-4.99-11.9-.03-.16,4.99,11.85.03h.05Z" fill="#4c4eaa"/><path d="M53.53,88.39l-5.73-6-11.85-.03-.27,5.99,17.85.05Z" fill="#fff"/><path d="M53.43,91.38l.11-2.99-17.85-.05-.16,2.99,17.9.05Z" fill="#eea160"/><path d="M48.49,68.21c0-1.6-.63-2.96-1.89-4.1-1.23-1.13-2.75-1.7-4.55-1.71s-3.28.56-4.55,1.69c-1.27,1.13-1.91,2.49-1.91,4.09l.53,9.19,11.9.03.47-9.18Z" fill="#676ac6"/></g><g id="body_0_Layer0_0_FILL"><path d="M48.4,69.46l-.26-4.94-26.08,2.12.26,4.94,26.08-2.12Z" fill="#bfd4e5"/><path d="M47.37,74.75c.74-1.33,1.09-3.09,1.03-5.29l-26.08,2.12c.17,2.19.7,3.89,1.57,5.08l23.48-1.9Z" fill="#676ac6"/><path d="M50.21,50.67c.42-3.64-.42-5.31-2.53-5.01l-27.16,2.2c-2.12.04-2.78,1.83-1.99,5.37l3.53,13.39,26.08-2.12,2.07-13.85Z" fill="#e7f3fc"/></g><g id="body_0_Layer0_0_MEMBER_0_FILL"><path d="M40.7,38.77c-1.91-1.55-4.14-2.22-6.68-2.01s-4.69,1.23-6.42,3.08c-1.7,1.94-2.49,4.16-2.36,6.65,0,.17.03.33.07.5.2,2.25,1.19,4.11,2.95,5.57,1.92,1.65,4.15,2.37,6.69,2.16s4.68-1.28,6.41-3.23c1.59-1.73,2.38-3.73,2.35-6,.02-.17.03-.34.02-.5-.13-2.49-1.14-4.57-3.03-6.22Z" fill="#a8603f"/></g><g id="body_0_Layer0_0_MEMBER_1_FILL"><path d="M32.75,65.97l-12.17,2.24c.32,1.61.65,3.32,1.01,5.13l10.73-2.37c.21-1.55.36-3.22.44-5Z" fill="#d78b49"/><path d="M32.75,65.97c.08-2.34.02-4.86-.18-7.55-4.05-2.51-7.37-6.55-9.96-12.12l-3.99-.53c-1.06,2.56-.41,10.04,1.95,22.44l12.17-2.24Z" fill="#eea160"/></g><g id="body_0_Layer0_0_MEMBER_2_FILL"><path d="M50.17,65.81l-12.3-.25c.27,1.75.58,3.38.95,4.88l10.88.62c.17-1.85.32-3.6.47-5.25Z" fill="#d78b49"/><path d="M37.26,58.04c.08,2.7.29,5.2.61,7.52l12.3.25c1.05-12.68.92-20.2-.39-22.57l-3.9,1.17c-1.99,5.94-4.86,10.48-8.62,13.63Z" fill="#eea160"/></g><g id="body_0_Layer0_0_MEMBER_3_FILL"><path d="M23.12,46.66l-1.59,3.74,11.76,6.66,1.59-3.79-11.76-6.61M45.86,44.81l-10.98,8.46,1.97,3.5,10.97-8.51-1.97-3.45Z" fill="#bfd4e5"/><path d="M36.85,56.77l-1.97-3.5-1.59,3.79,3.56-.29Z" fill="#e7f3fc"/></g><g id="shadow_0_Layer0_0_FILL"><path d="M46.45,34.69c-3.14-2.6-6.94-3.9-11.41-3.9s-8.31,1.3-11.53,3.9c-3.14,2.67-4.71,5.85-4.71,9.55s1.57,6.85,4.71,9.45c3.22,2.67,7.06,4,11.53,4s8.27-1.33,11.41-4c3.22-2.6,4.83-5.75,4.83-9.45s-1.61-6.88-4.83-9.55Z" fill="url(#Dégradé_sans_nom_51)"/></g><g id="head_0_Layer0_0_FILL"><path d="M52.02,5.79l-2.66-4.69C39.68-.17,30.56-.34,22,.59c-4.79.42-7.08,2.57-6.84,6.46l.11,1.71c.75-2.33,2.94-3.65,6.56-3.97,8.56-.89,17.68-.71,27.36.56l2.83.45M62.28,10.73l.21-1.24c.66-3.74-1.04-6.09-5.09-7.07l-4.74,3.51,4.57.69c2.84.68,4.52,2.05,5.04,4.12Z" fill="#454a51"/><path d="M57.24,6.61l-4.57-.69-.41.28-.23-.41-2.83-.45c-9.68-1.27-18.8-1.45-27.36-.56-3.62.31-5.81,1.64-6.56,3.97l1.25,19.49c.22,2.92,2.04,4.46,5.47,4.64l31.06,1.6c3.46.18,5.43-1.17,5.92-4.05l3.32-19.71c-.53-2.06-2.21-3.44-5.04-4.12Z" fill="#3c3e41"/></g><g id="head_0_Layer0_1_FILL"><path d="M13.55,27.64c-1.65,1.48-2.53,3.34-2.64,5.57s.57,4.17,2.05,5.81c1.51,1.71,3.35,2.63,5.52,2.74s4.14-.6,5.82-2.15c1.61-1.49,2.48-3.34,2.59-5.57s-.55-4.17-2-5.81c-1.51-1.71-3.37-2.63-5.57-2.74s-4.09.61-5.77,2.16M15.37,36.89c-.88-.98-1.29-2.15-1.22-3.52s.59-2.42,1.58-3.37c.98-.88,2.12-1.29,3.42-1.23,1.36.07,2.49.6,3.37,1.58.88,1.05,1.29,2.22,1.22,3.52-.07,1.36-.6,2.49-1.58,3.37-.98.92-2.16,1.34-3.52,1.27s-2.39-.61-3.27-1.62M50.5,29.54c-1.65,1.48-2.53,3.34-2.64,5.57s.57,4.17,2.05,5.81c1.51,1.71,3.35,2.63,5.52,2.74s4.14-.6,5.82-2.15c1.61-1.49,2.48-3.34,2.59-5.57s-.55-4.17-2-5.81c-1.51-1.71-3.37-2.63-5.57-2.74s-4.09.61-5.77,2.16M52.68,31.91c.98-.88,2.12-1.29,3.42-1.23s2.46.59,3.37,1.58c.88,1.05,1.29,2.22,1.22,3.52-.07,1.36-.6,2.49-1.58,3.37-1.02.92-2.19,1.34-3.52,1.27s-2.39-.61-3.27-1.62c-.92-.98-1.34-2.16-1.27-3.52s.61-2.42,1.63-3.37Z" fill="#bf7958"/><path d="M14.15,33.38c-.07,1.36.34,2.54,1.22,3.52.88,1.01,1.97,1.55,3.27,1.62,1.36.07,2.54-.35,3.52-1.27.98-.88,1.51-2.01,1.58-3.37.07-1.3-.34-2.47-1.22-3.52-.88-.98-2.01-1.51-3.37-1.58s-2.44.34-3.42,1.23c-.98.95-1.51,2.08-1.58,3.37M56.1,30.68c-1.3-.07-2.44.34-3.42,1.23-1.02.95-1.56,2.07-1.63,3.37-.07,1.36.35,2.54,1.27,3.52.88,1.01,1.97,1.55,3.27,1.62s2.5-.35,3.52-1.27c.98-.88,1.51-2.01,1.58-3.37s-.34-2.47-1.22-3.52c-.92-.98-2.04-1.51-3.37-1.58Z" fill="#a8603f"/></g><g id="head_0_Layer0_2_FILL"><path d="M48.86,48.73c3.62-.28,5.75-2.11,6.39-5.48l3.99-25.83-41.79-2.16,1.56,31.92,29.86,1.54Z" fill="#bf7958"/></g><g id="head_0_Layer0_3_FILL"><path d="M25.07,31.34c-.06,1.17.25,2.18.94,3.05.75.94,1.73,1.44,2.93,1.5,1.13.06,2.1-.34,2.92-1.2.81-.79,1.24-1.77,1.3-2.94s-.27-2.18-.99-3.06c-.72-.9-1.65-1.39-2.78-1.45-1.2-.06-2.22.32-3.06,1.14-.78.79-1.19,1.77-1.25,2.94M27.56,31.62v-.25c.08-.7.35-1.28.8-1.76.49-.51,1.07-.75,1.74-.71.7.04,1.27.33,1.71.89.41.52.61,1.13.61,1.83v.25c-.08.66-.34,1.23-.8,1.71-.49.51-1.09.74-1.79.71-.67-.03-1.22-.33-1.66-.89-.41-.52-.61-1.12-.61-1.78M42.94,35.26c.79.94,1.76,1.44,2.93,1.5s2.12-.34,2.87-1.2c.88-.79,1.34-1.77,1.4-2.93.06-1.17-.3-2.19-1.09-3.06-.65-.9-1.56-1.38-2.73-1.44s-2.19.32-3.06,1.14c-.78.79-1.19,1.77-1.25,2.94s.25,2.18.94,3.05M46.74,30.55c.44.52.66,1.14.66,1.84v.25c-.08.66-.36,1.23-.85,1.71-.46.51-1.02.75-1.69.71-.67-.03-1.25-.33-1.76-.89-.37-.52-.56-1.11-.56-1.78l.02-.35c.07-.63.31-1.19.74-1.66.56-.51,1.17-.74,1.84-.71.67.03,1.2.33,1.61.88Z" fill="#fff"/><path d="M27.57,31.37v.25c-.01.67.19,1.26.6,1.78.44.56.99.85,1.66.89.7.04,1.3-.2,1.79-.71.46-.48.72-1.05.79-1.71v-.25c.02-.7-.19-1.31-.59-1.83-.44-.56-1.01-.85-1.71-.89-.67-.03-1.25.2-1.74.71-.46.48-.72,1.06-.79,1.76M47.4,32.39c0-.7-.22-1.31-.66-1.84-.41-.55-.94-.85-1.61-.88-.67-.03-1.28.2-1.84.71-.43.48-.67,1.03-.74,1.66l-.02.35c0,.67.19,1.26.56,1.78.51.56,1.09.86,1.76.89.67.03,1.23-.2,1.69-.71.49-.48.77-1.04.84-1.71v-.25Z" fill="#3c3e41"/></g><g id="head_0_Layer0_3_MEMBER_0_FILL"><path d="M34.77,28.68l.35-2.84-10.76-1.06-.3,2.84,10.71,1.05M41.21,26.16l.05,2.86,10.76.05v-2.85s-10.81-.06-10.81-.06Z" fill="#3c3e41"/></g><g id="head_0_Layer0_3_MEMBER_1_FILL"><path d="M37.06,36.81c-2.36-.12-4.39.26-6.07,1.14-1.58.79-2.49,1.77-2.76,2.96-.08.16-.08.35-.03.55.06.17.15.32.28.46s.29.23.49.28c2.84.58,5.55.39,8.14-.58,2.44,1.23,5.12,1.7,8.04,1.42.2-.02.37-.1.51-.22s.25-.27.32-.43c.08-.2.1-.38.08-.55-.17-1.21-1-2.29-2.49-3.23-1.61-1.05-3.59-1.64-5.92-1.76l-.3-.02-.3-.02Z" fill="#3c3e41"/></g><g id="head_0_Layer0_3_MEMBER_2_FILL"><path d="M39.86,36.86c.69-.43,1.05-.96,1.08-1.6.03-.6-.27-1.17-.91-1.7-.64-.47-1.45-.73-2.41-.78s-1.74.13-2.43.53c-.69.47-1.05,1-1.08,1.6-.03.63.27,1.2.91,1.7.64.53,1.43.82,2.36.87s1.79-.16,2.49-.62Z" fill="#955435"/></g><g id="head_0_Layer0_4_FILL"><path d="M18.21,15.81h-.05c-.67.06-1.24.37-1.7.91-.46.48-.65,1.05-.59,1.72l1.07,16.08c.03.64.31,1.2.81,1.69.51.43,1.1.61,1.77.54h.05c.67-.03,1.22-.3,1.64-.81s.63-1.12.59-1.82l-1.08-15.98c-.06-.7-.35-1.27-.86-1.7-.48-.43-1.04-.64-1.67-.64M56.63,18.34c-.52.37-.85.91-.98,1.6l-2.72,15.78c-.1.7.03,1.32.4,1.87.37.55.89.88,1.55.98h.05c.63.14,1.22.02,1.77-.36.59-.44.93-.97,1.03-1.6l2.72-15.88c.13-.66,0-1.25-.41-1.77-.4-.59-.94-.95-1.6-1.08h-.05c-.66-.07-1.26.08-1.78.46Z" fill="#3c3e41"/></g><g id="head_0_Layer0_5_FILL"><path d="M53.24,21.02c4.33-1.15,6.54-2.62,6.64-4.41s-1.96-3.32-6.17-4.67c-4.14-1.35-9.22-2.09-15.25-2.24-5.97-.11-11.12.41-15.45,1.56-4.3,1.18-6.5,2.65-6.59,4.42s1.95,3.35,6.12,4.67c4.2,1.38,9.29,2.13,15.25,2.24,6.03.14,11.18-.37,15.45-1.56Z" fill="#3c3e41"/></g></g></g></svg>