<?xml version="1.0" encoding="UTF-8"?><svg id="Calque_2" xmlns="http://www.w3.org/2000/svg" xmlns:xlink="http://www.w3.org/1999/xlink" viewBox="0 0 64.42 91.4"><defs><radialGradient id="Dégradé_sans_nom_51" cx="-468.83" cy="91.3" fx="-468.83" fy="91.3" r="13.59" gradientTransform="translate(601.74 135.57) scale(1.21 -1)" gradientUnits="userSpaceOnUse"><stop offset="0" stop-color="#000" stop-opacity=".3"/><stop offset="1" stop-color="#000" stop-opacity="0"/></radialGradient></defs><g id="Calque_1-2"><g id="poses"><g id="arm_0_Layer0_0_FILL"><path d="M58.25,57.21c-1.08-2.19-2.38-4.3-3.91-6.31-3.61,1.3-6.78,3.72-9.51,7.27.66.83,1.26,1.69,1.79,2.57,1.26,2.01,2.15,4.22,2.69,6.64.34,1.57,1.19,2.8,2.56,3.69,1.4.85,2.9,1.12,4.51.81,1.57-.37,2.79-1.26,3.68-2.66.89-1.34,1.17-2.82.82-4.46-.44-1.89-1.01-3.69-1.7-5.39-.28-.74-.6-1.46-.94-2.16Z" fill="#bf7958"/><path d="M43.29,43.17c-1.62.21-2.94.96-3.98,2.24-1,1.32-1.37,2.76-1.13,4.35.18,1.62.89,2.93,2.14,3.94,1.76,1.35,3.26,2.84,4.51,4.48,2.73-3.55,5.9-5.97,9.51-7.27-1.9-2.37-4.13-4.56-6.7-6.55-1.27-.93-2.72-1.33-4.35-1.18Z" fill="#e7f3fc"/></g><g id="arm_0_Layer0_1_FILL"><path d="M56.87,51.54l-2.43-3.35-12,8.85,2.37,3.31,12.05-8.81Z" fill="#bfd4e5"/></g><g id="hand_0_Layer0_0_FILL"><path d="M48.93,77.07l-.31-.9c-.83-4.06-.51-7.48.97-10.27-4.36,5.74-4.59,9.48-.69,11.23l.03-.06Z" fill="#a8603f"/><path d="M61.89,63.68c-.28-.85-.89-1.15-1.82-.88l-10.49,3.1c-1.48,2.79-1.8,6.21-.97,10.27l.31.9-.03.06c.27,1.06.6,2.18.98,3.36l.11.38c.26.9,1.12,1.27,2.56,1.13,2.14-.14,4.17-.5,6.08-1.09,5.43-1.61,6.6-7.07,3.51-16.37l-.25-.86Z" fill="#bf7958"/></g><g id="leg_0_Layer0_0_FILL"><path d="M46.82,82.4l.73-4.99-11.9-.03-.73,4.99,11.85.03h.05Z" fill="#4c4eaa"/><path d="M51.82,88.4l-5.06-6-11.85-.03-.94,5.99,17.85.05Z" fill="#fff"/><path d="M51.38,91.4l.45-2.99-17.85-.05-.5,2.99,17.9.05Z" fill="#eea160"/><path d="M49.06,68.23c.19-1.6-.29-2.96-1.43-4.1-1.1-1.13-2.55-1.7-4.35-1.71s-3.35.56-4.75,1.68c-1.4,1.13-2.19,2.49-2.37,4.09l-.51,9.18,11.9.03,1.51-9.18Z" fill="#676ac6"/></g><g id="legBend_0_Layer0_0_FILL"><path d="M28.27,79.06c1.88-1.1,3.49-2.31,4.82-3.63l-7.47-9.3c-.54.96-1.3,1.78-2.29,2.46l4.95,10.47Z" fill="#4c4eaa"/><path d="M22.83,87.15l2.57-1.02-6.9-15.7-2.85,1.09,7.18,15.63Z" fill="#eea160"/><path d="M25.39,86.13l2.88-7.06-4.95-10.47-4.83,1.84,6.9,15.7Z" fill="#fff"/><path d="M35.57,58.09c-1.13-1.08-2.46-1.61-3.98-1.6-1.55.03-2.83.61-3.86,1.73-1,1.11-1.45,2.46-1.37,4.07.09,1.44-.14,2.72-.71,3.81l-.04.02,7.47,9.3c3.27-3.46,4.73-7.89,4.38-13.3-.09-1.6-.72-2.95-1.9-4.04Z" fill="#676ac6"/></g><g id="arm_0_Layer0_0_FILL-2"><path d="M9.06,55.65c1.6-1.85,3.4-3.55,5.39-5.11,3.16,2.18,5.61,5.33,7.35,9.46-.85.64-1.65,1.31-2.39,2.03-1.73,1.62-3.16,3.54-4.29,5.74-.73,1.43-1.87,2.41-3.42,2.92-1.57.47-3.1.35-4.57-.36-1.42-.76-2.38-1.93-2.88-3.52-.52-1.52-.41-3.03.35-4.53.91-1.72,1.92-3.32,3.02-4.79.46-.64.95-1.26,1.46-1.85Z" fill="#bf7958"/><path d="M27.11,45.87c1.51.62,2.6,1.68,3.28,3.19.63,1.53.62,3.02-.01,4.49-.59,1.52-1.61,2.61-3.07,3.26-2.04.86-3.88,1.92-5.51,3.19-1.73-4.13-4.18-7.28-7.35-9.46,2.44-1.81,5.16-3.36,8.15-4.64,1.47-.58,2.98-.59,4.51-.03Z" fill="#e7f3fc"/></g><g id="arm_0_Layer0_1_FILL-2"><path d="M11.84,50.5l3.2-2.63,9.35,11.62-3.14,2.6-9.42-11.6Z" fill="#bfd4e5"/></g><g id="hand_0_Layer0_0_FILL-2"><path d="M13.81,77.16l.53-.79c1.84-3.71,2.4-7.11,1.68-10.18,2.76,6.67,2.03,10.35-2.2,11.04l-.02-.07Z" fill="#a8603f"/><path d="M4.69,60.9c.49-.75,1.15-.88,1.98-.39l9.36,5.68c.72,3.07.16,6.47-1.68,10.18l-.53.79.02.07c-.54.96-1.14,1.96-1.8,3l-.21.34c-.48.8-1.4.95-2.77.44-2.04-.68-3.91-1.55-5.61-2.61-4.84-2.94-4.58-8.52.78-16.73l.46-.77Z" fill="#bf7958"/></g><g id="body_0_Layer0_0_FILL"><path d="M48.95,69.48l-.26-4.94-26.08,2.12.26,4.94,26.08-2.12Z" fill="#bfd4e5"/><path d="M47.92,74.78c.74-1.33,1.09-3.09,1.03-5.29l-26.08,2.12c.17,2.19.7,3.89,1.57,5.08l23.48-1.9Z" fill="#676ac6"/><path d="M50.76,50.69c.42-3.64-.42-5.31-2.53-5.01l-27.16,2.2c-2.12.04-2.78,1.83-1.99,5.37l3.53,13.39,26.08-2.12,2.07-13.85Z" fill="#e7f3fc"/></g><g id="body_0_Layer0_0_MEMBER_0_FILL"><path d="M41.25,38.79c-1.91-1.55-4.14-2.22-6.68-2.01s-4.69,1.23-6.42,3.08c-1.7,1.94-2.49,4.16-2.36,6.65,0,.17.03.33.07.5.2,2.25,1.19,4.11,2.95,5.57,1.92,1.65,4.15,2.37,6.69,2.16s4.68-1.28,6.41-3.23c1.59-1.73,2.38-3.73,2.35-6,.02-.17.03-.34.02-.5-.13-2.49-1.14-4.57-3.03-6.22Z" fill="#a8603f"/></g><g id="body_0_Layer0_0_MEMBER_1_FILL"><path d="M33.3,65.99l-12.17,2.24c.32,1.61.65,3.32,1.01,5.13l10.73-2.37c.21-1.55.36-3.22.44-5Z" fill="#d78b49"/><path d="M33.3,65.99c.08-2.34.02-4.86-.18-7.55-4.05-2.51-7.37-6.55-9.96-12.12l-3.99-.53c-1.06,2.56-.41,10.04,1.95,22.44l12.17-2.24Z" fill="#eea160"/></g><g id="body_0_Layer0_0_MEMBER_2_FILL"><path d="M50.72,65.83l-12.3-.25c.27,1.75.58,3.38.95,4.88l10.88.62c.17-1.85.32-3.6.47-5.25Z" fill="#d78b49"/><path d="M37.81,58.06c.08,2.7.29,5.2.61,7.52l12.3.25c1.05-12.68.92-20.2-.39-22.57l-3.9,1.17c-1.99,5.94-4.86,10.48-8.62,13.63Z" fill="#eea160"/></g><g id="body_0_Layer0_0_MEMBER_3_FILL"><path d="M23.67,46.68l-1.59,3.74,11.76,6.66,1.59-3.79-11.76-6.61M46.41,44.84l-10.98,8.46,1.97,3.5,10.97-8.51-1.97-3.45Z" fill="#bfd4e5"/><path d="M37.4,56.79l-1.97-3.5-1.59,3.79,3.56-.29Z" fill="#e7f3fc"/></g><g id="shadow_0_Layer0_0_FILL"><path d="M47,34.71c-3.14-2.6-6.94-3.9-11.41-3.9s-8.31,1.3-11.53,3.9c-3.14,2.67-4.71,5.85-4.71,9.55s1.57,6.85,4.71,9.45c3.22,2.67,7.06,4,11.53,4s8.27-1.33,11.41-4c3.22-2.6,4.83-5.75,4.83-9.45s-1.61-6.88-4.83-9.55Z" fill="url(#Dégradé_sans_nom_51)"/></g><g id="head_0_Layer0_0_FILL"><path d="M52.74,5.88l-2.64-4.71C40.43-.14,31.31-.35,22.74.54c-4.8.4-7.09,2.54-6.87,6.42l.1,1.71c.77-2.33,2.96-3.64,6.58-3.94,8.56-.85,17.68-.62,27.35.69l2.83.46M62.97,10.87l.22-1.24c.68-3.73-1.01-6.1-5.06-7.1l-4.75,3.49,4.57.71c2.83.69,4.51,2.07,5.02,4.14Z" fill="#454a51"/><path d="M57.95,6.73l-4.57-.71-.42.28-.23-.41-2.83-.46c-9.67-1.31-18.79-1.54-27.35-.69-3.62.3-5.82,1.61-6.58,3.94l1.15,19.5c.2,2.92,2.02,4.47,5.45,4.66l31.05,1.75c3.46.2,5.44-1.15,5.94-4.02l3.41-19.69c-.52-2.07-2.19-3.45-5.02-4.14Z" fill="#3c3e41"/></g><g id="head_0_Layer0_1_FILL"><path d="M14.16,27.54c-1.65,1.48-2.54,3.33-2.67,5.56s.55,4.17,2.03,5.82c1.51,1.72,3.34,2.64,5.5,2.76s4.14-.58,5.83-2.13c1.62-1.48,2.49-3.33,2.62-5.56s-.53-4.17-1.98-5.82c-1.51-1.72-3.36-2.64-5.55-2.77s-4.09.59-5.78,2.13M15.94,36.81c-.88-.98-1.28-2.16-1.2-3.52s.6-2.42,1.59-3.37c.98-.88,2.13-1.28,3.42-1.21,1.36.08,2.49.61,3.37,1.59.88,1.05,1.28,2.23,1.2,3.52-.08,1.36-.61,2.49-1.59,3.37-.99.91-2.16,1.33-3.53,1.25s-2.39-.62-3.26-1.64M51.1,29.63c-1.65,1.48-2.54,3.33-2.67,5.56s.55,4.17,2.03,5.82c1.51,1.72,3.34,2.64,5.5,2.76s4.14-.58,5.83-2.13c1.62-1.48,2.49-3.33,2.62-5.56s-.53-4.17-1.98-5.82c-1.51-1.72-3.36-2.64-5.55-2.77s-4.09.59-5.78,2.13M53.27,32c.98-.88,2.13-1.28,3.42-1.21s2.45.61,3.37,1.59c.88,1.05,1.28,2.23,1.2,3.52-.08,1.36-.61,2.49-1.59,3.37-1.02.91-2.19,1.33-3.53,1.25s-2.39-.62-3.26-1.64c-.91-.99-1.33-2.16-1.25-3.53s.62-2.42,1.64-3.36Z" fill="#bf7958"/><path d="M14.74,33.29c-.08,1.36.32,2.54,1.2,3.52.88,1.02,1.97,1.56,3.26,1.64,1.36.08,2.54-.34,3.53-1.25.98-.88,1.52-2,1.59-3.37.07-1.3-.33-2.47-1.2-3.52-.88-.98-2-1.52-3.37-1.59s-2.44.33-3.42,1.21c-.99.95-1.52,2.07-1.59,3.37M56.69,30.79c-1.3-.07-2.44.33-3.42,1.21-1.02.94-1.57,2.06-1.64,3.36-.08,1.36.34,2.54,1.25,3.53.88,1.02,1.97,1.56,3.26,1.64s2.51-.34,3.53-1.25c.98-.88,1.52-2,1.59-3.37s-.33-2.47-1.2-3.52c-.91-.99-2.03-1.52-3.37-1.59Z" fill="#a8603f"/></g><g id="head_0_Layer0_2_FILL"><path d="M49.37,48.81c3.62-.26,5.76-2.08,6.42-5.45l4.11-25.81-41.78-2.36,1.4,31.93,29.85,1.68Z" fill="#bf7958"/></g><g id="head_0_Layer0_3_FILL"><path d="M25.67,31.3c-.07,1.16.24,2.18.93,3.06.75.94,1.72,1.45,2.92,1.52,1.13.06,2.11-.33,2.92-1.19.81-.79,1.25-1.77,1.32-2.93s-.26-2.18-.98-3.06c-.72-.91-1.64-1.39-2.77-1.46-1.2-.07-2.22.31-3.07,1.13-.78.79-1.2,1.77-1.27,2.93M28.15,31.59v-.25c.09-.7.35-1.28.81-1.76.5-.51,1.08-.74,1.74-.7.7.04,1.27.34,1.7.9.4.52.6,1.14.6,1.84v.25c-.08.66-.35,1.23-.81,1.71-.5.51-1.09.74-1.79.7-.67-.04-1.22-.34-1.65-.89-.4-.52-.6-1.12-.6-1.79M43.52,35.31c.78.95,1.75,1.45,2.92,1.52s2.12-.33,2.87-1.19c.88-.79,1.35-1.76,1.42-2.92.07-1.16-.29-2.19-1.08-3.07-.65-.9-1.56-1.39-2.72-1.46s-2.19.31-3.07,1.13c-.78.79-1.2,1.77-1.27,2.93s.24,2.18.93,3.06M47.34,30.62c.44.53.65,1.14.65,1.84v.25c-.08.66-.37,1.23-.86,1.7-.46.51-1.03.74-1.69.71-.67-.04-1.25-.34-1.75-.9-.37-.52-.55-1.12-.55-1.78l.02-.35c.07-.63.32-1.18.74-1.66.56-.5,1.18-.73,1.84-.7.67.04,1.2.33,1.6.89Z" fill="#fff"/><path d="M28.17,31.34v.25c-.02.67.18,1.26.59,1.79.44.56.99.86,1.65.89.7.04,1.3-.19,1.79-.7.46-.47.73-1.04.8-1.71v-.25c.02-.7-.18-1.31-.58-1.84-.44-.56-1-.86-1.7-.9-.67-.04-1.25.2-1.74.7-.46.47-.73,1.06-.8,1.76M47.99,32.46c0-.7-.21-1.31-.65-1.84-.4-.56-.94-.85-1.6-.89-.67-.04-1.28.19-1.84.7-.43.48-.68,1.03-.74,1.66l-.02.35c0,.67.18,1.26.55,1.78.5.56,1.09.86,1.75.9.67.04,1.23-.2,1.69-.71.49-.47.78-1.04.85-1.7v-.25Z" fill="#3c3e41"/></g><g id="head_0_Layer0_3_MEMBER_0_FILL"><path d="M35.38,28.69l.36-2.83-10.75-1.11-.31,2.84,10.7,1.1M41.83,26.2l.04,2.86,10.76.11v-2.85s-10.8-.11-10.8-.11Z" fill="#3c3e41"/></g><g id="head_0_Layer0_3_MEMBER_1_FILL"><path d="M37.62,36.83c-2.36-.13-4.39.24-6.07,1.11-1.58.78-2.5,1.76-2.77,2.95-.08.16-.09.35-.03.55.06.17.15.33.27.47s.29.23.49.28c2.84.59,5.55.41,8.14-.54,2.43,1.24,5.11,1.72,8.03,1.45.2-.02.37-.1.51-.22s.25-.27.32-.43c.08-.2.1-.38.08-.55-.17-1.21-.99-2.29-2.47-3.24-1.61-1.06-3.58-1.65-5.91-1.79l-.3-.02-.3-.02Z" fill="#3c3e41"/></g><g id="head_0_Layer0_3_MEMBER_2_FILL"><path d="M40.42,36.89c.69-.43,1.06-.96,1.09-1.59.03-.6-.27-1.17-.91-1.7-.64-.47-1.44-.73-2.41-.79s-1.74.12-2.43.51c-.69.46-1.06.99-1.09,1.59-.04.63.27,1.2.91,1.7.64.54,1.42.83,2.35.88s1.79-.15,2.49-.61Z" fill="#955435"/></g><g id="head_0_Layer0_4_FILL"><path d="M18.88,15.74h-.05c-.67.06-1.24.36-1.7.9-.46.47-.66,1.05-.6,1.72l1,16.08c.03.64.3,1.2.81,1.7.51.43,1.1.61,1.77.55h.05c.67-.03,1.22-.3,1.65-.81s.63-1.12.6-1.82l-1-15.98c-.06-.7-.35-1.27-.86-1.7-.48-.43-1.03-.64-1.67-.64M57.29,18.46c-.52.37-.85.9-.99,1.6l-2.79,15.77c-.11.7.03,1.32.4,1.88.37.56.88.88,1.55.99h.05c.63.14,1.22.02,1.77-.35.59-.43.94-.97,1.04-1.59l2.8-15.87c.14-.66,0-1.25-.4-1.78-.4-.59-.93-.95-1.59-1.09h-.05c-.66-.07-1.26.08-1.78.45Z" fill="#3c3e41"/></g><g id="head_0_Layer0_5_FILL"><path d="M53.88,21.12c4.34-1.12,6.56-2.58,6.66-4.38s-1.95-3.33-6.14-4.7c-4.13-1.37-9.21-2.14-15.24-2.31-5.97-.14-11.12.36-15.46,1.48-4.31,1.16-6.51,2.62-6.61,4.38s1.93,3.36,6.09,4.7c4.19,1.41,9.28,2.18,15.24,2.31,6.03.17,11.19-.32,15.46-1.48Z" fill="#3c3e41"/></g></g></g></svg>