<?xml version="1.0" encoding="UTF-8"?><svg id="Calque_2" xmlns="http://www.w3.org/2000/svg" xmlns:xlink="http://www.w3.org/1999/xlink" viewBox="0 0 64.08 95.23"><defs><radialGradient id="Dégradé_sans_nom_51" cx="-660.88" cy="95.15" fx="-660.88" fy="95.15" r="13.59" gradientTransform="translate(833.6 139.27) scale(1.21 -1)" gradientUnits="userSpaceOnUse"><stop offset="0" stop-color="#000" stop-opacity=".3"/><stop offset="1" stop-color="#000" stop-opacity="0"/></radialGradient></defs><g id="Calque_1-2"><g id="poses"><g id="arm_0_Layer0_0_FILL"><path d="M57.35,56.11c-1.08-2.19-2.38-4.3-3.91-6.31-3.61,1.3-6.78,3.72-9.51,7.27.66.83,1.26,1.69,1.79,2.57,1.26,2.01,2.15,4.22,2.69,6.64.34,1.57,1.19,2.8,2.56,3.69,1.4.85,2.9,1.12,4.51.81,1.57-.37,2.79-1.26,3.68-2.66.89-1.34,1.17-2.82.82-4.46-.44-1.89-1.01-3.69-1.7-5.39-.28-.74-.6-1.46-.94-2.16Z" fill="#bf7958"/><path d="M42.39,42.07c-1.62.21-2.94.96-3.98,2.24-1,1.32-1.37,2.76-1.13,4.35.18,1.62.89,2.93,2.14,3.94,1.76,1.35,3.26,2.84,4.51,4.48,2.73-3.55,5.9-5.97,9.51-7.27-1.9-2.37-4.13-4.56-6.7-6.55-1.27-.93-2.72-1.33-4.35-1.18Z" fill="#e7f3fc"/></g><g id="arm_0_Layer0_1_FILL"><path d="M55.97,50.43l-2.43-3.35-12,8.85,2.37,3.31,12.05-8.81Z" fill="#bfd4e5"/></g><g id="hand_0_Layer0_0_FILL"><path d="M48.13,75.17l-.31-.9c-.83-4.06-.51-7.48.97-10.27-4.36,5.74-4.59,9.49-.69,11.23l.03-.06Z" fill="#a8603f"/><path d="M61.09,61.78c-.28-.85-.89-1.15-1.82-.88l-10.49,3.1c-1.48,2.79-1.8,6.21-.97,10.27l.31.9-.03.06c.27,1.06.6,2.18.98,3.36l.11.38c.26.9,1.12,1.27,2.56,1.13,2.14-.14,4.17-.5,6.08-1.09,5.43-1.61,6.6-7.07,3.51-16.37l-.25-.86Z" fill="#bf7958"/></g><g id="arm_0_Layer0_0_FILL-2"><path d="M8.96,54.19c1.6-1.85,3.4-3.55,5.39-5.11,3.16,2.18,5.61,5.33,7.35,9.46-.85.64-1.65,1.31-2.39,2.03-1.73,1.62-3.16,3.53-4.29,5.74-.73,1.43-1.87,2.41-3.42,2.92-1.57.47-3.1.35-4.57-.36-1.42-.76-2.38-1.93-2.88-3.52-.52-1.52-.41-3.03.35-4.53.91-1.72,1.92-3.32,3.02-4.79.46-.64.95-1.26,1.46-1.85Z" fill="#bf7958"/><path d="M27.01,44.42c1.51.62,2.6,1.68,3.28,3.19.63,1.53.62,3.02-.01,4.49-.59,1.52-1.61,2.61-3.07,3.26-2.04.86-3.88,1.92-5.51,3.19-1.73-4.13-4.18-7.28-7.35-9.46,2.44-1.81,5.16-3.36,8.15-4.63,1.47-.58,2.98-.59,4.51-.03Z" fill="#e7f3fc"/></g><g id="arm_0_Layer0_1_FILL-2"><path d="M11.74,49.05l3.2-2.63,9.35,11.62-3.14,2.6-9.42-11.59Z" fill="#bfd4e5"/></g><g id="hand_0_Layer0_0_FILL-2"><path d="M13.81,75.71l.53-.79c1.84-3.71,2.4-7.11,1.68-10.18,2.76,6.67,2.03,10.35-2.2,11.04l-.02-.07Z" fill="#a8603f"/><path d="M4.68,59.45c.49-.75,1.15-.88,1.98-.39l9.36,5.68c.72,3.07.16,6.47-1.68,10.18l-.53.79.02.07c-.54.96-1.14,1.96-1.8,3l-.21.34c-.48.8-1.4.95-2.77.44-2.04-.68-3.91-1.55-5.61-2.61-4.84-2.94-4.58-8.52.78-16.73l.46-.77Z" fill="#bf7958"/></g><g id="legBend_0_Layer0_0_FILL"><path d="M54.35,81.32c.55-2.1.83-4.1.84-5.97l-11.86-1.29c.3,1.06.34,2.18.12,3.36l10.9,3.9Z" fill="#4c4eaa"/><path d="M56.22,90.89l1.1-2.54-15.97-6.22-1.25,2.78,16.13,5.97Z" fill="#eea160"/><path d="M57.31,88.35l-2.96-7.03-10.9-3.9-2.11,4.71,15.97,6.22Z" fill="#fff"/><path d="M44.68,61.33c-1.57.04-2.88.6-3.95,1.68-1.07,1.12-1.57,2.43-1.5,3.95.08,1.49.71,2.77,1.91,3.84,1.09.96,1.82,2.02,2.2,3.2v.04s11.85,1.29,11.85,1.29c-.13-4.76-2.24-8.92-6.31-12.5-1.19-1.07-2.6-1.58-4.2-1.52Z" fill="#676ac6"/></g><g id="leg_0_Layer0_0_FILL"><path d="M31.03,86.24l1.71-4.99-11.9-.03-1.71,4.99,11.85.03h.05Z" fill="#4c4eaa"/><path d="M34.86,92.24l-3.88-6-11.85-.03-2.12,5.98,17.85.05Z" fill="#fff"/><path d="M33.82,95.23l1.03-2.99-17.85-.05-1.08,2.99,17.9.05Z" fill="#eea160"/><path d="M36.05,72.08c.5-1.6.29-2.96-.62-4.09-.88-1.13-2.22-1.7-4.02-1.71s-3.46.56-5.08,1.68c-1.62,1.13-2.68,2.49-3.18,4.08l-2.31,9.18,11.9.03,3.31-9.18Z" fill="#676ac6"/></g><g id="body_0_Layer0_0_FILL"><path d="M48.9,69.33l-.26-4.94-26.08,2.12.26,4.94,26.08-2.12Z" fill="#bfd4e5"/><path d="M47.87,74.62c.74-1.33,1.09-3.09,1.03-5.29l-26.08,2.12c.17,2.19.7,3.89,1.57,5.08l23.48-1.9Z" fill="#676ac6"/><path d="M50.71,50.54c.42-3.64-.42-5.31-2.53-5.01l-27.16,2.2c-2.12.04-2.78,1.83-1.99,5.37l3.53,13.39,26.08-2.12,2.07-13.85Z" fill="#e7f3fc"/></g><g id="body_0_Layer0_0_MEMBER_0_FILL"><path d="M41.2,38.64c-1.91-1.55-4.14-2.22-6.68-2.01s-4.69,1.23-6.42,3.08c-1.7,1.94-2.49,4.16-2.36,6.65,0,.17.03.33.07.5.2,2.25,1.19,4.11,2.95,5.57,1.92,1.65,4.15,2.37,6.69,2.16s4.68-1.28,6.41-3.23c1.59-1.73,2.38-3.73,2.35-6,.02-.17.03-.34.02-.5-.13-2.49-1.14-4.57-3.03-6.22Z" fill="#a8603f"/></g><g id="body_0_Layer0_0_MEMBER_1_FILL"><path d="M33.25,65.84l-12.17,2.24c.32,1.61.65,3.32,1.01,5.13l10.73-2.37c.21-1.55.36-3.22.44-5Z" fill="#d78b49"/><path d="M33.25,65.84c.08-2.34.02-4.86-.18-7.55-4.05-2.51-7.37-6.55-9.96-12.12l-3.99-.53c-1.06,2.56-.41,10.04,1.95,22.44l12.17-2.24Z" fill="#eea160"/></g><g id="body_0_Layer0_0_MEMBER_2_FILL"><path d="M50.67,65.68l-12.3-.25c.27,1.75.58,3.38.95,4.88l10.88.62c.17-1.85.32-3.6.47-5.25Z" fill="#d78b49"/><path d="M37.76,57.91c.08,2.7.29,5.2.61,7.52l12.3.25c1.05-12.68.92-20.2-.39-22.57l-3.9,1.17c-1.99,5.94-4.86,10.48-8.62,13.63Z" fill="#eea160"/></g><g id="body_0_Layer0_0_MEMBER_3_FILL"><path d="M23.62,46.53l-1.59,3.74,11.76,6.66,1.59-3.79-11.76-6.61M46.35,44.68l-10.98,8.46,1.97,3.5,10.97-8.51-1.97-3.45Z" fill="#bfd4e5"/><path d="M37.35,56.64l-1.97-3.5-1.59,3.79,3.56-.29Z" fill="#e7f3fc"/></g><g id="shadow_0_Layer0_0_FILL"><path d="M46.95,34.56c-3.14-2.6-6.94-3.9-11.41-3.9s-8.31,1.3-11.53,3.9c-3.14,2.67-4.71,5.85-4.71,9.55s1.57,6.85,4.71,9.45c3.22,2.67,7.06,4,11.53,4s8.27-1.33,11.41-4c3.22-2.6,4.83-5.75,4.83-9.45s-1.61-6.88-4.83-9.55Z" fill="url(#Dégradé_sans_nom_51)"/></g><g id="head_0_Layer0_0_FILL"><path d="M50.73,4.96l-2.9-4.55C38.1-.35,28.98-.05,20.48,1.31c-4.77.67-6.93,2.93-6.5,6.8l.2,1.7c.63-2.37,2.75-3.8,6.35-4.3,8.5-1.33,17.62-1.62,27.35-.85l2.85.3M61.23,9.36l.15-1.25c.47-3.77-1.35-6.03-5.45-6.8l-4.55,3.75,4.6.45c2.87.53,4.62,1.82,5.25,3.85Z" fill="#454a51"/><path d="M55.98,5.51l-4.6-.45-.4.3-.25-.4-2.85-.3c-9.73-.77-18.85-.48-27.35.85-3.6.5-5.72,1.93-6.35,4.3l2.25,19.4c.37,2.9,2.27,4.35,5.7,4.35h31.1c3.47,0,5.37-1.45,5.7-4.35l2.3-19.85c-.63-2.03-2.38-3.32-5.25-3.85Z" fill="#3c3e41"/></g><g id="head_0_Layer0_1_FILL"><path d="M13.43,28.76c-1.57,1.57-2.35,3.47-2.35,5.7s.78,4.13,2.35,5.7c1.6,1.63,3.48,2.45,5.65,2.45s4.1-.82,5.7-2.45c1.53-1.57,2.3-3.47,2.3-5.7s-.77-4.13-2.3-5.7c-1.6-1.63-3.5-2.45-5.7-2.45s-4.05.82-5.65,2.45M15.73,37.91c-.93-.93-1.4-2.08-1.4-3.45s.47-2.45,1.4-3.45c.93-.93,2.05-1.4,3.35-1.4,1.37,0,2.52.47,3.45,1.4.93,1,1.4,2.15,1.4,3.45,0,1.37-.47,2.52-1.4,3.45-.93.97-2.08,1.45-3.45,1.45s-2.42-.48-3.35-1.45M50.43,28.76c-1.57,1.57-2.35,3.47-2.35,5.7s.78,4.13,2.35,5.7c1.6,1.63,3.48,2.45,5.65,2.45s4.1-.82,5.7-2.45c1.53-1.57,2.3-3.47,2.3-5.7s-.77-4.13-2.3-5.7c-1.6-1.63-3.5-2.45-5.7-2.45s-4.05.82-5.65,2.45M52.73,31.01c.93-.93,2.05-1.4,3.35-1.4s2.48.47,3.45,1.4c.93,1,1.4,2.15,1.4,3.45,0,1.37-.47,2.52-1.4,3.45-.97.97-2.12,1.45-3.45,1.45s-2.42-.48-3.35-1.45c-.97-.93-1.45-2.08-1.45-3.45s.48-2.45,1.45-3.45Z" fill="#bf7958"/><path d="M14.33,34.46c0,1.37.47,2.52,1.4,3.45.93.97,2.05,1.45,3.35,1.45,1.37,0,2.52-.48,3.45-1.45.93-.93,1.4-2.08,1.4-3.45,0-1.3-.47-2.45-1.4-3.45-.93-.93-2.08-1.4-3.45-1.4s-2.42.47-3.35,1.4c-.93,1-1.4,2.15-1.4,3.45M56.08,29.61c-1.3,0-2.42.47-3.35,1.4-.97,1-1.45,2.15-1.45,3.45,0,1.37.48,2.52,1.45,3.45.93.97,2.05,1.45,3.35,1.45s2.48-.48,3.45-1.45c.93-.93,1.4-2.08,1.4-3.45s-.47-2.45-1.4-3.45c-.97-.93-2.12-1.4-3.45-1.4Z" fill="#a8603f"/></g><g id="head_0_Layer0_2_FILL"><path d="M49.78,48.01c3.6-.47,5.63-2.4,6.1-5.8l2.65-26H16.68l3.2,31.8h29.9Z" fill="#bf7958"/></g><g id="head_0_Layer0_3_FILL"><path d="M25.13,31.86c0,1.17.37,2.17,1.1,3,.8.9,1.8,1.35,3,1.35,1.13,0,2.08-.45,2.85-1.35.77-.83,1.15-1.83,1.15-3s-.38-2.17-1.15-3c-.77-.87-1.72-1.3-2.85-1.3-1.2,0-2.2.43-3,1.3-.73.83-1.1,1.83-1.1,3M27.63,32.01v-.25c.03-.7.27-1.3.7-1.8.47-.53,1.03-.8,1.7-.8.7,0,1.28.27,1.75.8.43.5.67,1.1.7,1.8v.25c-.03.67-.27,1.25-.7,1.75-.47.53-1.05.8-1.75.8-.67,0-1.23-.27-1.7-.8-.43-.5-.67-1.08-.7-1.75M43.18,34.86c.83.9,1.83,1.35,3,1.35s2.1-.45,2.8-1.35c.83-.83,1.25-1.83,1.25-3,0-1.17-.42-2.17-1.25-3-.7-.87-1.63-1.3-2.8-1.3s-2.17.43-3,1.3c-.73.83-1.1,1.83-1.1,3s.37,2.17,1.1,3M46.73,29.96c.47.5.72,1.1.75,1.8v.25c-.03.67-.28,1.25-.75,1.75-.43.53-.98.8-1.65.8-.67,0-1.27-.27-1.8-.8-.4-.5-.62-1.08-.65-1.75v-.35c.03-.63.25-1.2.65-1.7.53-.53,1.13-.8,1.8-.8.67,0,1.22.27,1.65.8Z" fill="#fff"/><path d="M27.63,31.76v.25c.03.67.27,1.25.7,1.75.47.53,1.03.8,1.7.8.7,0,1.28-.27,1.75-.8.43-.5.67-1.08.7-1.75v-.25c-.03-.7-.27-1.3-.7-1.8-.47-.53-1.05-.8-1.75-.8-.67,0-1.23.27-1.7.8-.43.5-.67,1.1-.7,1.8M47.48,31.76c-.03-.7-.28-1.3-.75-1.8-.43-.53-.98-.8-1.65-.8-.67,0-1.27.27-1.8.8-.4.5-.62,1.07-.65,1.7v.35c.03.67.25,1.25.65,1.75.53.53,1.13.8,1.8.8.67,0,1.22-.27,1.65-.8.47-.5.72-1.08.75-1.75v-.25Z" fill="#3c3e41"/></g><g id="head_0_Layer0_3_MEMBER_0_FILL"><path d="M34.68,28.71l.2-2.85-10.8-.5-.15,2.85,10.75.5M40.98,25.86l.2,2.85,10.75-.5-.15-2.85-10.8.5Z" fill="#3c3e41"/></g><g id="head_0_Layer0_3_MEMBER_1_FILL"><path d="M37.38,36.71c-2.37,0-4.37.48-6,1.45-1.53.87-2.4,1.9-2.6,3.1-.07.17-.07.35,0,.55.07.17.17.32.3.45s.3.22.5.25c2.87.43,5.57.1,8.1-1,2.5,1.1,5.2,1.43,8.1,1,.2-.03.37-.12.5-.25s.23-.28.3-.45c.07-.2.08-.38.05-.55-.23-1.2-1.12-2.23-2.65-3.1-1.67-.97-3.67-1.45-6-1.45h-.6Z" fill="#3c3e41"/></g><g id="head_0_Layer0_3_MEMBER_2_FILL"><path d="M40.18,36.61c.67-.47,1-1.02,1-1.65,0-.6-.33-1.15-1-1.65-.67-.43-1.48-.65-2.45-.65s-1.73.22-2.4.65c-.67.5-1,1.05-1,1.65,0,.63.33,1.18,1,1.65.67.5,1.47.75,2.4.75s1.78-.25,2.45-.75Z" fill="#955435"/></g><g id="head_0_Layer0_4_FILL"><path d="M17.48,16.71h-.05c-.67.1-1.22.43-1.65,1-.43.5-.6,1.08-.5,1.75l1.9,16c.07.63.37,1.18.9,1.65.53.4,1.13.55,1.8.45h.05c.67-.07,1.2-.37,1.6-.9s.57-1.15.5-1.85l-1.9-15.9c-.1-.7-.42-1.25-.95-1.65-.5-.4-1.07-.58-1.7-.55M55.98,17.26c-.5.4-.8.95-.9,1.65l-1.9,15.9c-.07.7.1,1.32.5,1.85.4.53.93.83,1.6.9h.05c.63.1,1.22-.05,1.75-.45.57-.47.88-1.02.95-1.65l1.9-16c.1-.67-.07-1.25-.5-1.75-.43-.57-.98-.9-1.65-1h-.05c-.67-.03-1.25.15-1.75.55Z" fill="#3c3e41"/></g><g id="head_0_Layer0_5_FILL"><path d="M52.73,20.11c4.27-1.37,6.4-2.95,6.4-4.75s-2.13-3.22-6.4-4.35c-4.2-1.13-9.32-1.62-15.35-1.45-5.97.2-11.08.98-15.35,2.35-4.23,1.4-6.35,2.98-6.35,4.75s2.12,3.25,6.35,4.35c4.27,1.17,9.38,1.65,15.35,1.45,6.03-.17,11.15-.95,15.35-2.35Z" fill="#3c3e41"/></g></g></g></svg>