<?xml version="1.0" encoding="UTF-8"?><svg id="Calque_2" xmlns="http://www.w3.org/2000/svg" xmlns:xlink="http://www.w3.org/1999/xlink" viewBox="0 0 63.92 95.29"><defs><radialGradient id="Dégradé_sans_nom_51" cx="-276.88" cy="95.21" fx="-276.88" fy="95.21" r="13.59" gradientTransform="translate(369.89 139.38) scale(1.21 -1)" gradientUnits="userSpaceOnUse"><stop offset="0" stop-color="#000" stop-opacity=".3"/><stop offset="1" stop-color="#000" stop-opacity="0"/></radialGradient></defs><g id="Calque_1-2"><g id="poses"><g id="arm_0_Layer0_0_FILL"><path d="M58.4,56.17c-1.08-2.19-2.38-4.3-3.91-6.31-3.61,1.3-6.78,3.72-9.51,7.27.66.83,1.26,1.69,1.79,2.57,1.26,2.01,2.15,4.22,2.69,6.64.34,1.57,1.19,2.8,2.56,3.69,1.4.85,2.9,1.12,4.51.81,1.57-.37,2.79-1.26,3.68-2.66.89-1.34,1.17-2.82.82-4.46-.44-1.89-1.01-3.69-1.7-5.39-.28-.74-.6-1.46-.94-2.16Z" fill="#bf7958"/><path d="M43.44,42.13c-1.62.21-2.94.96-3.98,2.24-1,1.31-1.37,2.76-1.13,4.35.18,1.62.89,2.93,2.14,3.94,1.76,1.35,3.26,2.84,4.51,4.48,2.73-3.55,5.9-5.97,9.51-7.27-1.9-2.37-4.13-4.56-6.7-6.55-1.27-.93-2.72-1.33-4.35-1.18Z" fill="#e7f3fc"/></g><g id="arm_0_Layer0_1_FILL"><path d="M57.02,50.49l-2.43-3.35-12,8.85,2.37,3.31,12.05-8.81Z" fill="#bfd4e5"/></g><g id="hand_0_Layer0_0_FILL"><path d="M49.03,75.13l-.31-.9c-.83-4.06-.51-7.48.97-10.27-4.36,5.74-4.59,9.48-.69,11.23l.03-.06Z" fill="#a8603f"/><path d="M61.99,61.74c-.28-.85-.89-1.15-1.82-.88l-10.49,3.1c-1.48,2.79-1.8,6.21-.97,10.27l.31.9-.03.06c.27,1.06.6,2.18.98,3.36l.11.38c.26.9,1.11,1.27,2.56,1.13,2.14-.14,4.17-.5,6.08-1.09,5.43-1.61,6.6-7.07,3.51-16.36l-.25-.86Z" fill="#bf7958"/></g><g id="arm_0_Layer0_0_FILL-2"><path d="M8.96,54.25c1.6-1.85,3.4-3.55,5.39-5.11,3.16,2.18,5.61,5.33,7.35,9.46-.85.64-1.65,1.31-2.39,2.03-1.73,1.62-3.16,3.53-4.29,5.74-.73,1.43-1.87,2.41-3.42,2.92-1.57.47-3.1.35-4.57-.36-1.42-.76-2.38-1.93-2.88-3.52-.52-1.52-.41-3.03.35-4.53.91-1.72,1.92-3.32,3.02-4.79.46-.64.95-1.26,1.46-1.85Z" fill="#bf7958"/><path d="M27.01,44.48c1.51.62,2.6,1.68,3.28,3.19.63,1.53.62,3.02-.01,4.49-.59,1.52-1.61,2.61-3.07,3.26-2.04.86-3.88,1.92-5.51,3.19-1.73-4.13-4.18-7.28-7.35-9.46,2.44-1.81,5.16-3.36,8.15-4.64,1.47-.58,2.98-.59,4.51-.04Z" fill="#e7f3fc"/></g><g id="arm_0_Layer0_1_FILL-2"><path d="M11.74,49.11l3.2-2.63,9.35,11.62-3.14,2.6-9.42-11.59Z" fill="#bfd4e5"/></g><g id="hand_0_Layer0_0_FILL-2"><path d="M13.81,75.77l.53-.79c1.84-3.71,2.4-7.11,1.68-10.18,2.76,6.67,2.03,10.35-2.2,11.04l-.02-.07Z" fill="#a8603f"/><path d="M4.68,59.51c.49-.75,1.15-.88,1.98-.39l9.36,5.68c.72,3.07.16,6.47-1.68,10.18l-.53.79.02.07c-.54.96-1.14,1.96-1.8,3l-.21.34c-.48.8-1.4.95-2.77.44-2.04-.68-3.91-1.55-5.61-2.61-4.84-2.94-4.58-8.52.78-16.73l.46-.77Z" fill="#bf7958"/></g><g id="leg_0_Layer0_0_FILL"><path d="M29.99,86.3l2.08-4.99-11.9-.03-2.08,4.99,11.85.03h.05Z" fill="#4c4eaa"/><path d="M33.38,92.3l-3.44-6-11.85-.03-2.56,5.98,17.85.05Z" fill="#fff"/><path d="M32.13,95.29l1.26-2.99-17.85-.05-1.31,2.99,17.9.05Z" fill="#eea160"/><path d="M36.06,72.14c.62-1.6.51-2.96-.32-4.09-.8-1.13-2.1-1.7-3.9-1.71s-3.5.56-5.2,1.68c-1.7,1.13-2.86,2.49-3.48,4.08l-2.99,9.18,11.9.03,3.99-9.17Z" fill="#676ac6"/></g><g id="legBend_0_Layer0_0_FILL"><path d="M54.4,80.57c.3-2.35.34-4.54.12-6.56l-12.27.29c.44,1.1.62,2.3.54,3.61l11.61,2.66Z" fill="#4c4eaa"/><path d="M57.49,90.62l.8-2.89-17.08-4.44-.93,3.18,17.2,4.15Z" fill="#eea160"/><path d="M58.29,87.73l-3.89-7.16-11.61-2.66-1.57,5.38,17.08,4.44Z" fill="#fff"/><path d="M42.05,60.37c-1.6.26-2.87,1.06-3.82,2.38-.95,1.36-1.3,2.85-1.04,4.48.26,1.6,1.07,2.89,2.42,3.87,1.23.88,2.11,1.92,2.64,3.14v.05s12.27-.29,12.27-.29c-.73-5.12-3.39-9.31-7.99-12.59-1.35-.99-2.85-1.33-4.48-1.04Z" fill="#676ac6"/></g><g id="body_0_Layer0_0_FILL"><path d="M48.9,69.39l-.26-4.94-26.08,2.12.26,4.94,26.08-2.12Z" fill="#bfd4e5"/><path d="M47.87,74.68c.74-1.33,1.09-3.09,1.03-5.29l-26.08,2.12c.17,2.19.7,3.89,1.57,5.08l23.48-1.9Z" fill="#676ac6"/><path d="M50.71,50.6c.42-3.64-.42-5.31-2.53-5.01l-27.16,2.2c-2.12.04-2.78,1.83-1.99,5.37l3.53,13.39,26.08-2.12,2.07-13.85Z" fill="#e7f3fc"/></g><g id="body_0_Layer0_0_MEMBER_0_FILL"><path d="M41.2,38.7c-1.91-1.55-4.14-2.22-6.68-2.01s-4.69,1.23-6.42,3.08c-1.7,1.94-2.49,4.16-2.36,6.65,0,.17.03.33.07.5.2,2.25,1.19,4.11,2.95,5.57,1.92,1.65,4.15,2.37,6.69,2.16s4.68-1.28,6.41-3.23c1.59-1.73,2.38-3.73,2.35-6,.02-.17.03-.34.02-.5-.13-2.49-1.14-4.57-3.03-6.22Z" fill="#a8603f"/></g><g id="body_0_Layer0_0_MEMBER_1_FILL"><path d="M33.25,65.9l-12.17,2.24c.32,1.61.65,3.32,1.01,5.13l10.73-2.37c.21-1.55.36-3.22.44-5Z" fill="#d78b49"/><path d="M33.25,65.9c.08-2.34.02-4.86-.18-7.55-4.05-2.51-7.37-6.55-9.96-12.12l-3.99-.53c-1.06,2.56-.41,10.04,1.95,22.44l12.17-2.24Z" fill="#eea160"/></g><g id="body_0_Layer0_0_MEMBER_2_FILL"><path d="M50.67,65.74l-12.3-.25c.27,1.75.58,3.38.95,4.88l10.88.62c.17-1.85.32-3.6.47-5.25Z" fill="#d78b49"/><path d="M37.76,57.97c.08,2.7.29,5.2.61,7.52l12.3.25c1.05-12.68.92-20.2-.39-22.57l-3.9,1.17c-1.99,5.94-4.86,10.48-8.62,13.63Z" fill="#eea160"/></g><g id="body_0_Layer0_0_MEMBER_3_FILL"><path d="M23.62,46.59l-1.59,3.74,11.76,6.66,1.59-3.79-11.76-6.61M46.35,44.74l-10.98,8.46,1.97,3.5,10.97-8.51-1.97-3.45Z" fill="#bfd4e5"/><path d="M37.35,56.7l-1.97-3.5-1.59,3.79,3.56-.29Z" fill="#e7f3fc"/></g><g id="shadow_0_Layer0_0_FILL"><path d="M46.95,34.62c-3.14-2.6-6.94-3.9-11.41-3.9s-8.31,1.3-11.53,3.9c-3.14,2.67-4.71,5.85-4.71,9.55s1.57,6.85,4.71,9.45c3.22,2.67,7.06,4,11.53,4s8.27-1.33,11.41-4c3.22-2.6,4.83-5.75,4.83-9.45s-1.61-6.88-4.83-9.55Z" fill="url(#Dégradé_sans_nom_51)"/></g><g id="head_0_Layer0_0_FILL"><path d="M49.2,4.5L46.1.08c-9.76-.34-18.85.35-27.28,2.09-4.73.87-6.8,3.23-6.2,7.08l.27,1.69c.53-2.39,2.58-3.92,6.16-4.57,8.43-1.7,17.53-2.38,27.29-2.04l2.86.18M59.88,8.44l.1-1.26c.3-3.78-1.61-5.97-5.74-6.56l-4.38,3.94,4.62.25c2.89.41,4.69,1.61,5.41,3.62Z" fill="#454a51"/><path d="M54.47,4.83l-4.62-.25-.39.32-.27-.39-2.86-.18c-9.76-.34-18.85.34-27.29,2.04-3.57.66-5.63,2.18-6.16,4.57l3.09,19.28c.49,2.88,2.45,4.25,5.88,4.1l31.07-1.35c3.46-.15,5.3-1.68,5.51-4.59l1.43-19.93c-.72-2-2.53-3.21-5.41-3.62Z" fill="#3c3e41"/></g><g id="head_0_Layer0_1_FILL"><path d="M12.97,29.9c-1.5,1.63-2.2,3.57-2.1,5.8s.96,4.1,2.6,5.59c1.67,1.56,3.59,2.3,5.75,2.2s4.06-.99,5.59-2.7c1.46-1.63,2.15-3.56,2.05-5.79s-.95-4.1-2.55-5.59c-1.67-1.56-3.6-2.3-5.8-2.2s-4.01.99-5.54,2.69M15.67,38.95c-.97-.89-1.49-2.02-1.55-3.39s.36-2.47,1.25-3.51c.89-.97,1.99-1.49,3.29-1.54,1.37-.06,2.53.36,3.51,1.25.98.96,1.49,2.09,1.55,3.39.06,1.37-.36,2.53-1.25,3.51-.89,1.01-2.02,1.54-3.38,1.6s-2.44-.38-3.41-1.3M49.93,28.29c-1.5,1.63-2.2,3.57-2.1,5.8s.96,4.1,2.6,5.59c1.67,1.56,3.59,2.3,5.75,2.2s4.06-.99,5.59-2.7c1.46-1.63,2.15-3.56,2.05-5.79s-.95-4.1-2.55-5.59c-1.67-1.56-3.6-2.3-5.8-2.2s-4.01.99-5.54,2.69M52.33,30.44c.89-.97,1.99-1.49,3.29-1.54s2.5.36,3.51,1.25c.98.96,1.49,2.09,1.55,3.39.06,1.37-.36,2.53-1.25,3.51-.92,1.01-2.05,1.54-3.38,1.6s-2.44-.38-3.41-1.3c-1.01-.89-1.54-2.02-1.6-3.38s.38-2.47,1.3-3.51Z" fill="#bf7958"/><path d="M14.12,35.56c.06,1.37.58,2.49,1.55,3.39.97.93,2.11,1.36,3.41,1.3,1.37-.06,2.49-.59,3.38-1.6.89-.97,1.31-2.14,1.25-3.51-.06-1.3-.57-2.43-1.55-3.39-.97-.89-2.14-1.31-3.51-1.25s-2.39.57-3.29,1.54c-.89,1.04-1.31,2.21-1.25,3.51M55.62,28.9c-1.3.06-2.39.57-3.29,1.54-.92,1.04-1.36,2.21-1.3,3.51.06,1.37.59,2.49,1.6,3.38.97.93,2.11,1.36,3.41,1.3s2.46-.59,3.38-1.6c.89-.97,1.31-2.14,1.25-3.51s-.57-2.43-1.55-3.39c-1.01-.89-2.18-1.31-3.51-1.25Z" fill="#a8603f"/></g><g id="head_0_Layer0_2_FILL"><path d="M50.12,47.55c3.58-.62,5.52-2.64,5.84-6.06l1.52-26.09-41.81,1.82,4.58,31.63,29.87-1.3Z" fill="#bf7958"/></g><g id="head_0_Layer0_3_FILL"><path d="M24.79,32.49c.05,1.17.46,2.15,1.23,2.95.84.86,1.86,1.27,3.06,1.22,1.13-.05,2.06-.54,2.79-1.47.73-.87,1.07-1.88,1.02-3.05s-.48-2.15-1.28-2.95c-.8-.83-1.77-1.22-2.9-1.17-1.2.05-2.18.53-2.94,1.43-.7.86-1.02,1.88-.97,3.04M27.3,32.53v-.25c0-.7.2-1.31.61-1.83.44-.55,1-.84,1.66-.87.7-.03,1.29.21,1.78.72.45.48.71,1.07.78,1.77v.25c0,.67-.2,1.26-.61,1.78-.44.55-1.01.84-1.71.88-.67.03-1.24-.21-1.73-.73-.45-.48-.71-1.05-.78-1.72M42.96,34.7c.87.86,1.89,1.27,3.06,1.22s2.08-.54,2.74-1.47c.8-.87,1.17-1.89,1.12-3.05-.05-1.17-.51-2.15-1.38-2.94-.74-.84-1.69-1.23-2.85-1.18s-2.15.53-2.94,1.43c-.7.86-1.02,1.88-.97,3.04s.46,2.15,1.23,2.95M46.29,29.65c.49.48.76,1.07.83,1.77v.25c0,.67-.22,1.26-.66,1.78-.41.55-.95.84-1.61.87-.67.03-1.28-.21-1.83-.72-.42-.48-.66-1.06-.73-1.72l-.02-.35c0-.63.2-1.21.58-1.73.51-.56,1.1-.85,1.76-.88.67-.03,1.23.21,1.68.73Z" fill="#fff"/><path d="M27.29,32.28v.25c.07.66.33,1.24.79,1.72.49.51,1.07.75,1.73.73.7-.03,1.27-.32,1.71-.88.41-.52.62-1.11.62-1.78v-.25c-.07-.7-.33-1.29-.79-1.77-.49-.51-1.08-.75-1.78-.72-.67.03-1.22.32-1.66.87-.41.52-.62,1.13-.62,1.83M47.12,31.42c-.06-.7-.34-1.29-.83-1.77-.46-.51-1.02-.76-1.68-.73-.67.03-1.25.32-1.76.88-.38.52-.57,1.09-.58,1.73l.02.35c.06.66.3,1.24.73,1.72.56.51,1.17.75,1.83.72.67-.03,1.2-.32,1.61-.87.44-.52.67-1.11.67-1.78v-.25Z" fill="#3c3e41"/></g><g id="head_0_Layer0_3_MEMBER_0_FILL"><path d="M34.2,28.93l.08-2.86-10.81-.03-.03,2.85,10.76.03M40.37,25.81l.32,2.84,10.72-.97-.27-2.84-10.77.97Z" fill="#3c3e41"/></g><g id="head_0_Layer0_3_MEMBER_1_FILL"><path d="M37.24,36.8c-2.36.1-4.34.67-5.93,1.71-1.49.93-2.32,2-2.46,3.21-.06.17-.05.35.02.55.07.16.18.31.32.44s.31.2.51.23c2.88.31,5.57-.14,8.05-1.35,2.55.99,5.26,1.21,8.14.65.2-.04.36-.13.49-.27s.22-.29.28-.46c.06-.2.07-.39.03-.55-.29-1.19-1.21-2.18-2.78-2.98-1.71-.89-3.73-1.29-6.06-1.19h-.3c-.1.02-.2.02-.3.03Z" fill="#3c3e41"/></g><g id="head_0_Layer0_3_MEMBER_2_FILL"><path d="M40.04,36.58c.65-.5.95-1.06.93-1.69-.03-.6-.38-1.13-1.07-1.6-.68-.4-1.51-.58-2.48-.54s-1.72.29-2.37.75c-.64.53-.95,1.09-.93,1.69.03.63.38,1.17,1.07,1.6.69.47,1.5.69,2.43.64s1.77-.33,2.42-.86Z" fill="#955435"/></g><g id="head_0_Layer0_4_FILL"><path d="M16.49,17.69h-.05c-.66.13-1.2.49-1.6,1.07-.41.52-.55,1.11-.42,1.77l2.59,15.9c.09.63.42,1.17.97,1.61.55.38,1.16.5,1.82.37h.05c.66-.1,1.18-.42,1.56-.97s.52-1.17.42-1.87l-2.59-15.8c-.13-.69-.47-1.23-1.02-1.61-.52-.38-1.09-.54-1.72-.48M54.98,16.56c-.48.42-.76.98-.83,1.69l-1.21,15.97c-.04.7.16,1.31.58,1.83.42.52.97.79,1.64.83h.05c.64.07,1.21-.11,1.73-.53.55-.49.84-1.05.88-1.69l1.2-16.07c.07-.67-.12-1.25-.58-1.73-.46-.55-1.02-.86-1.69-.93h-.05c-.67,0-1.24.21-1.72.63Z" fill="#3c3e41"/></g><g id="head_0_Layer0_5_FILL"><path d="M51.86,19.55c4.2-1.55,6.27-3.23,6.19-5.02s-2.27-3.12-6.58-4.07c-4.25-.95-9.38-1.21-15.4-.78-5.95.46-11.03,1.46-15.23,3.02-4.17,1.58-6.21,3.26-6.14,5.02s2.26,3.15,6.53,4.07c4.31.98,9.45,1.24,15.4.78,6.02-.43,11.1-1.43,15.23-3.02Z" fill="#3c3e41"/></g></g></g></svg>