<?xml version="1.0" encoding="UTF-8"?><svg id="Calque_2" xmlns="http://www.w3.org/2000/svg" xmlns:xlink="http://www.w3.org/1999/xlink" viewBox="0 0 58.92 93.24"><defs><radialGradient id="Dégradé_sans_nom_51" cx="-570.05" cy="93.15" fx="-570.05" fy="93.15" r="13.59" gradientTransform="translate(718.75 137.27) scale(1.21 -1)" gradientUnits="userSpaceOnUse"><stop offset="0" stop-color="#000" stop-opacity=".3"/><stop offset="1" stop-color="#000" stop-opacity="0"/></radialGradient></defs><g id="Calque_1-2"><g id="poses"><g id="arm_0_Layer0_0_FILL"><path d="M50.94,59.03c-.47-2.4-1.19-4.77-2.14-7.1-3.82.32-7.51,1.84-11.07,4.56.42.97.78,1.96,1.06,2.94.7,2.26.99,4.63.88,7.11-.08,1.61.43,3.01,1.52,4.23,1.13,1.19,2.51,1.84,4.15,1.95,1.61.05,3.02-.49,4.24-1.62,1.21-1.06,1.86-2.43,1.95-4.1.06-1.94-.02-3.83-.24-5.65-.08-.79-.2-1.56-.35-2.33Z" fill="#bf7958"/><path d="M40.13,41.6c-1.62-.22-3.09.16-4.42,1.14-1.3,1.01-2.04,2.31-2.22,3.9-.25,1.61.1,3.07,1.05,4.36,1.35,1.76,2.41,3.59,3.2,5.5,3.55-2.72,7.24-4.24,11.07-4.56-1.22-2.78-2.81-5.47-4.77-8.06-.99-1.23-2.29-1.99-3.9-2.27Z" fill="#e7f3fc"/></g><g id="arm_0_Layer0_1_FILL"><path d="M51.08,53.19l-1.48-3.87-13.88,5.44,1.43,3.81,13.92-5.39Z" fill="#bfd4e5"/></g><g id="hand_0_Layer0_0_FILL"><path d="M36.79,75.35l-.07-.95c.25-4.14,1.44-7.36,3.59-9.67-5.7,4.42-6.89,7.97-3.57,10.67l.05-.05Z" fill="#a8603f"/><path d="M52.77,65.77c-.05-.9-.56-1.34-1.53-1.32l-10.94.28c-2.15,2.31-3.35,5.53-3.59,9.67l.07.95-.05.05c-.01,1.1.01,2.26.07,3.5v.4c.03.93.76,1.52,2.19,1.75,2.11.42,4.16.59,6.16.52,5.66-.15,8.2-5.12,7.63-14.9l-.02-.9Z" fill="#bf7958"/></g><g id="arm_0_Layer0_0_FILL-2"><path d="M4.68,57.68c1.07-2.2,2.36-4.31,3.88-6.33,3.62,1.29,6.8,3.7,9.54,7.24-.66.84-1.25,1.69-1.78,2.58-1.25,2.01-2.14,4.23-2.66,6.66-.33,1.57-1.18,2.81-2.55,3.7-1.4.86-2.9,1.14-4.51.83-1.57-.37-2.8-1.25-3.69-2.65-.9-1.33-1.18-2.82-.84-4.46.43-1.9.99-3.7,1.67-5.4.28-.74.59-1.46.93-2.16Z" fill="#bf7958"/><path d="M19.59,43.56c1.62.2,2.95.95,3.99,2.23,1,1.31,1.39,2.76,1.15,4.34-.17,1.62-.88,2.94-2.12,3.95-1.75,1.36-3.25,2.86-4.5,4.5-2.74-3.54-5.93-5.95-9.54-7.24,1.89-2.38,4.12-4.58,6.67-6.59,1.27-.94,2.72-1.34,4.35-1.2Z" fill="#e7f3fc"/></g><g id="arm_0_Layer0_1_FILL-2"><path d="M6.03,51.99l2.41-3.37,12.04,8.81-2.36,3.32-12.1-8.76Z" fill="#bfd4e5"/></g><g id="hand_0_Layer0_0_FILL-2"><path d="M14.92,77.35l.31-.9c.82-4.06.48-7.49-1.01-10.27,4.39,5.73,4.64,9.47.73,11.23l-.03-.06Z" fill="#a8603f"/><path d="M1.89,64c.28-.86.88-1.15,1.81-.88l10.51,3.06c1.49,2.78,1.83,6.21,1.01,10.27l-.31.9.03.06c-.27,1.07-.59,2.19-.96,3.36l-.11.38c-.26.9-1.11,1.28-2.56,1.14-2.15-.13-4.18-.49-6.09-1.07-5.44-1.59-6.63-7.05-3.58-16.37l.25-.87Z" fill="#bf7958"/></g><g id="legBend_0_Layer0_0_FILL"><path d="M34,83.56c1.88-1.1,3.49-2.31,4.82-3.63l-7.47-9.3c-.54.96-1.3,1.78-2.29,2.46l4.95,10.47Z" fill="#4c4eaa"/><path d="M28.56,91.65l2.57-1.02-6.9-15.7-2.85,1.09,7.18,15.63Z" fill="#eea160"/><path d="M31.12,90.63l2.88-7.06-4.95-10.47-4.83,1.84,6.9,15.7Z" fill="#fff"/><path d="M41.3,62.59c-1.13-1.08-2.46-1.61-3.98-1.6-1.55.03-2.83.61-3.86,1.73-1,1.11-1.45,2.46-1.37,4.07.09,1.44-.14,2.72-.71,3.81l-.04.02,7.47,9.3c3.27-3.46,4.73-7.89,4.38-13.3-.09-1.6-.72-2.95-1.9-4.04Z" fill="#676ac6"/></g><g id="leg_0_Layer0_0_FILL"><path d="M36.6,84.25l.73-4.99-11.9-.03-.73,4.99,11.85.03h.05Z" fill="#4c4eaa"/><path d="M41.6,90.25l-5.06-6-11.85-.03-.94,5.99,17.85.05Z" fill="#fff"/><path d="M41.15,93.24l.45-2.99-17.85-.05-.5,2.99,17.9.05Z" fill="#eea160"/><path d="M38.84,70.08c.19-1.6-.29-2.96-1.43-4.1-1.1-1.13-2.55-1.7-4.35-1.71s-3.35.56-4.75,1.68c-1.4,1.13-2.19,2.49-2.37,4.09l-.51,9.18,11.9.03,1.51-9.18Z" fill="#676ac6"/></g><g id="body_0_Layer0_0_FILL"><path d="M43.73,69.33l-.26-4.94-26.08,2.12.26,4.94,26.08-2.12Z" fill="#bfd4e5"/><path d="M42.7,74.62c.74-1.33,1.09-3.09,1.03-5.29l-26.08,2.12c.17,2.19.7,3.89,1.57,5.08l23.48-1.9Z" fill="#676ac6"/><path d="M45.54,50.54c.42-3.64-.42-5.31-2.53-5.01l-27.16,2.2c-2.12.04-2.78,1.83-1.99,5.37l3.53,13.39,26.08-2.12,2.07-13.85Z" fill="#e7f3fc"/></g><g id="body_0_Layer0_0_MEMBER_0_FILL"><path d="M36.03,38.64c-1.91-1.55-4.14-2.22-6.68-2.01s-4.69,1.23-6.42,3.08c-1.7,1.94-2.49,4.16-2.36,6.65,0,.17.03.33.07.5.2,2.25,1.19,4.11,2.95,5.57,1.92,1.65,4.15,2.37,6.69,2.16s4.68-1.28,6.41-3.23c1.59-1.73,2.38-3.73,2.35-6,.02-.17.03-.34.02-.5-.13-2.49-1.14-4.57-3.03-6.22Z" fill="#a8603f"/></g><g id="body_0_Layer0_0_MEMBER_1_FILL"><path d="M28.08,65.84l-12.17,2.24c.32,1.61.65,3.32,1.01,5.13l10.73-2.37c.21-1.55.36-3.22.44-5Z" fill="#d78b49"/><path d="M28.08,65.84c.08-2.34.02-4.86-.18-7.55-4.05-2.51-7.37-6.55-9.96-12.12l-3.99-.53c-1.06,2.56-.41,10.04,1.95,22.44l12.17-2.24Z" fill="#eea160"/></g><g id="body_0_Layer0_0_MEMBER_2_FILL"><path d="M45.5,65.68l-12.3-.25c.27,1.75.58,3.38.95,4.88l10.88.62c.17-1.85.32-3.6.47-5.25Z" fill="#d78b49"/><path d="M32.59,57.91c.08,2.7.29,5.2.61,7.52l12.3.25c1.05-12.68.92-20.2-.39-22.57l-3.9,1.17c-1.99,5.94-4.86,10.48-8.62,13.63Z" fill="#eea160"/></g><g id="body_0_Layer0_0_MEMBER_3_FILL"><path d="M18.45,46.53l-1.59,3.74,11.76,6.66,1.59-3.79-11.76-6.61M41.18,44.68l-10.98,8.46,1.97,3.5,10.97-8.51-1.97-3.45Z" fill="#bfd4e5"/><path d="M32.18,56.64l-1.97-3.5-1.59,3.79,3.56-.29Z" fill="#e7f3fc"/></g><g id="shadow_0_Layer0_0_FILL"><path d="M41.78,34.56c-3.14-2.6-6.94-3.9-11.41-3.9s-8.31,1.3-11.53,3.9c-3.14,2.67-4.71,5.85-4.71,9.55s1.57,6.85,4.71,9.45c3.22,2.67,7.06,4,11.53,4s8.27-1.33,11.41-4c3.22-2.6,4.83-5.75,4.83-9.45s-1.61-6.88-4.83-9.55Z" fill="url(#Dégradé_sans_nom_51)"/></g><g id="head_0_Layer0_0_FILL"><path d="M45.57,4.96l-2.9-4.55C32.93-.35,23.82-.05,15.32,1.31c-4.77.67-6.93,2.93-6.5,6.8l.2,1.7c.63-2.37,2.75-3.8,6.35-4.3,8.5-1.33,17.62-1.62,27.35-.85l2.85.3M56.07,9.36l.15-1.25c.47-3.77-1.35-6.03-5.45-6.8l-4.55,3.75,4.6.45c2.87.53,4.62,1.82,5.25,3.85Z" fill="#454a51"/><path d="M50.82,5.51l-4.6-.45-.4.3-.25-.4-2.85-.3c-9.73-.77-18.85-.48-27.35.85-3.6.5-5.72,1.93-6.35,4.3l2.25,19.4c.37,2.9,2.27,4.35,5.7,4.35h31.1c3.47,0,5.37-1.45,5.7-4.35l2.3-19.85c-.63-2.03-2.38-3.32-5.25-3.85Z" fill="#3c3e41"/></g><g id="head_0_Layer0_1_FILL"><path d="M8.27,28.76c-1.57,1.57-2.35,3.47-2.35,5.7s.78,4.13,2.35,5.7c1.6,1.63,3.48,2.45,5.65,2.45s4.1-.82,5.7-2.45c1.53-1.57,2.3-3.47,2.3-5.7s-.77-4.13-2.3-5.7c-1.6-1.63-3.5-2.45-5.7-2.45s-4.05.82-5.65,2.45M10.57,37.91c-.93-.93-1.4-2.08-1.4-3.45s.47-2.45,1.4-3.45c.93-.93,2.05-1.4,3.35-1.4,1.37,0,2.52.47,3.45,1.4.93,1,1.4,2.15,1.4,3.45,0,1.37-.47,2.52-1.4,3.45-.93.97-2.08,1.45-3.45,1.45s-2.42-.48-3.35-1.45M45.27,28.76c-1.57,1.57-2.35,3.47-2.35,5.7s.78,4.13,2.35,5.7c1.6,1.63,3.48,2.45,5.65,2.45s4.1-.82,5.7-2.45c1.53-1.57,2.3-3.47,2.3-5.7s-.77-4.13-2.3-5.7c-1.6-1.63-3.5-2.45-5.7-2.45s-4.05.82-5.65,2.45M47.57,31.01c.93-.93,2.05-1.4,3.35-1.4s2.48.47,3.45,1.4c.93,1,1.4,2.15,1.4,3.45,0,1.37-.47,2.52-1.4,3.45-.97.97-2.12,1.45-3.45,1.45s-2.42-.48-3.35-1.45c-.97-.93-1.45-2.08-1.45-3.45s.48-2.45,1.45-3.45Z" fill="#bf7958"/><path d="M9.17,34.46c0,1.37.47,2.52,1.4,3.45.93.97,2.05,1.45,3.35,1.45,1.37,0,2.52-.48,3.45-1.45.93-.93,1.4-2.08,1.4-3.45,0-1.3-.47-2.45-1.4-3.45-.93-.93-2.08-1.4-3.45-1.4s-2.42.47-3.35,1.4c-.93,1-1.4,2.15-1.4,3.45M50.92,29.61c-1.3,0-2.42.47-3.35,1.4-.97,1-1.45,2.15-1.45,3.45,0,1.37.48,2.52,1.45,3.45.93.97,2.05,1.45,3.35,1.45s2.48-.48,3.45-1.45c.93-.93,1.4-2.08,1.4-3.45s-.47-2.45-1.4-3.45c-.97-.93-2.12-1.4-3.45-1.4Z" fill="#a8603f"/></g><g id="head_0_Layer0_2_FILL"><path d="M44.62,48.01c3.6-.47,5.63-2.4,6.1-5.8l2.65-26H11.52l3.2,31.8h29.9Z" fill="#bf7958"/></g><g id="head_0_Layer0_3_FILL"><path d="M19.97,31.86c0,1.17.37,2.17,1.1,3,.8.9,1.8,1.35,3,1.35,1.13,0,2.08-.45,2.85-1.35.77-.83,1.15-1.83,1.15-3s-.38-2.17-1.15-3c-.77-.87-1.72-1.3-2.85-1.3-1.2,0-2.2.43-3,1.3-.73.83-1.1,1.83-1.1,3M22.47,32.01v-.25c.03-.7.27-1.3.7-1.8.47-.53,1.03-.8,1.7-.8.7,0,1.28.27,1.75.8.43.5.67,1.1.7,1.8v.25c-.03.67-.27,1.25-.7,1.75-.47.53-1.05.8-1.75.8-.67,0-1.23-.27-1.7-.8-.43-.5-.67-1.08-.7-1.75M38.02,34.86c.83.9,1.83,1.35,3,1.35s2.1-.45,2.8-1.35c.83-.83,1.25-1.83,1.25-3,0-1.17-.42-2.17-1.25-3-.7-.87-1.63-1.3-2.8-1.3s-2.17.43-3,1.3c-.73.83-1.1,1.83-1.1,3s.37,2.17,1.1,3M41.57,29.96c.47.5.72,1.1.75,1.8v.25c-.03.67-.28,1.25-.75,1.75-.43.53-.98.8-1.65.8-.67,0-1.27-.27-1.8-.8-.4-.5-.62-1.08-.65-1.75v-.35c.03-.63.25-1.2.65-1.7.53-.53,1.13-.8,1.8-.8.67,0,1.22.27,1.65.8Z" fill="#fff"/><path d="M22.47,31.76v.25c.03.67.27,1.25.7,1.75.47.53,1.03.8,1.7.8.7,0,1.28-.27,1.75-.8.43-.5.67-1.08.7-1.75v-.25c-.03-.7-.27-1.3-.7-1.8-.47-.53-1.05-.8-1.75-.8-.67,0-1.23.27-1.7.8-.43.5-.67,1.1-.7,1.8M42.32,31.76c-.03-.7-.28-1.3-.75-1.8-.43-.53-.98-.8-1.65-.8-.67,0-1.27.27-1.8.8-.4.5-.62,1.07-.65,1.7v.35c.03.67.25,1.25.65,1.75.53.53,1.13.8,1.8.8.67,0,1.22-.27,1.65-.8.47-.5.72-1.08.75-1.75v-.25Z" fill="#3c3e41"/></g><g id="head_0_Layer0_3_MEMBER_0_FILL"><path d="M29.52,28.71l.2-2.85-10.8-.5-.15,2.85,10.75.5M35.82,25.86l.2,2.85,10.75-.5-.15-2.85-10.8.5Z" fill="#3c3e41"/></g><g id="head_0_Layer0_3_MEMBER_1_FILL"><path d="M32.22,36.71c-2.37,0-4.37.48-6,1.45-1.53.87-2.4,1.9-2.6,3.1-.07.17-.07.35,0,.55.07.17.17.32.3.45s.3.22.5.25c2.87.43,5.57.1,8.1-1,2.5,1.1,5.2,1.43,8.1,1,.2-.03.37-.12.5-.25s.23-.28.3-.45c.07-.2.08-.38.05-.55-.23-1.2-1.12-2.23-2.65-3.1-1.67-.97-3.67-1.45-6-1.45h-.6Z" fill="#3c3e41"/></g><g id="head_0_Layer0_3_MEMBER_2_FILL"><path d="M35.02,36.61c.67-.47,1-1.02,1-1.65,0-.6-.33-1.15-1-1.65-.67-.43-1.48-.65-2.45-.65s-1.73.22-2.4.65c-.67.5-1,1.05-1,1.65,0,.63.33,1.18,1,1.65.67.5,1.47.75,2.4.75s1.78-.25,2.45-.75Z" fill="#955435"/></g><g id="head_0_Layer0_4_FILL"><path d="M12.32,16.71h-.05c-.67.1-1.22.43-1.65,1-.43.5-.6,1.08-.5,1.75l1.9,16c.07.63.37,1.18.9,1.65.53.4,1.13.55,1.8.45h.05c.67-.07,1.2-.37,1.6-.9s.57-1.15.5-1.85l-1.9-15.9c-.1-.7-.42-1.25-.95-1.65-.5-.4-1.07-.58-1.7-.55M50.82,17.26c-.5.4-.8.95-.9,1.65l-1.9,15.9c-.07.7.1,1.32.5,1.85.4.53.93.83,1.6.9h.05c.63.1,1.22-.05,1.75-.45.57-.47.88-1.02.95-1.65l1.9-16c.1-.67-.07-1.25-.5-1.75-.43-.57-.98-.9-1.65-1h-.05c-.67-.03-1.25.15-1.75.55Z" fill="#3c3e41"/></g><g id="head_0_Layer0_5_FILL"><path d="M47.57,20.11c4.27-1.37,6.4-2.95,6.4-4.75s-2.13-3.22-6.4-4.35c-4.2-1.13-9.32-1.62-15.35-1.45-5.97.2-11.08.98-15.35,2.35-4.23,1.4-6.35,2.98-6.35,4.75s2.12,3.25,6.35,4.35c4.27,1.17,9.38,1.65,15.35,1.45,6.03-.17,11.15-.95,15.35-2.35Z" fill="#3c3e41"/></g></g></g></svg>