<?xml version="1.0" encoding="UTF-8"?><svg id="Calque_2" xmlns="http://www.w3.org/2000/svg" xmlns:xlink="http://www.w3.org/1999/xlink" viewBox="0 0 74.1 93.26"><defs><radialGradient id="Dégradé_sans_nom_51" cx="-368.26" cy="93.15" fx="-368.26" fy="93.15" r="13.59" gradientTransform="translate(484.86 137.27) scale(1.21 -1)" gradientUnits="userSpaceOnUse"><stop offset="0" stop-color="#000" stop-opacity=".3"/><stop offset="1" stop-color="#000" stop-opacity="0"/></radialGradient></defs><g id="Calque_1-2"><g id="poses"><g id="arm_0_Layer0_0_FILL"><path d="M64.13,53.07c-1.61-1.84-3.41-3.53-5.41-5.08-3.15,2.19-5.58,5.35-7.3,9.48.85.63,1.65,1.31,2.39,2.02,1.73,1.61,3.17,3.52,4.31,5.72.73,1.43,1.88,2.4,3.43,2.9,1.57.46,3.09.33,4.57-.38,1.42-.77,2.37-1.94,2.86-3.52.52-1.52.39-3.03-.36-4.52-.92-1.72-1.93-3.31-3.03-4.77-.46-.64-.95-1.26-1.47-1.84Z" fill="#bf7958"/><path d="M46.05,43.38c-1.51.62-2.59,1.69-3.26,3.2-.62,1.53-.61,3.02.03,4.49.59,1.52,1.62,2.6,3.09,3.25,2.04.85,3.88,1.9,5.52,3.16,1.72-4.13,4.15-7.29,7.3-9.48-2.45-1.8-5.17-3.33-8.16-4.6-1.47-.57-2.98-.58-4.51-.02Z" fill="#e7f3fc"/></g><g id="arm_0_Layer0_1_FILL"><path d="M61.33,47.94l-3.21-2.61-9.3,11.65,3.15,2.58,9.36-11.62Z" fill="#bfd4e5"/></g><g id="hand_0_Layer0_0_FILL"><path d="M60.33,74.57l-.53-.79c-1.85-3.7-2.43-7.09-1.72-10.17-2.73,6.68-1.98,10.35,2.24,11.02l.02-.07Z" fill="#a8603f"/><path d="M69.38,58.28c-.49-.75-1.15-.88-1.98-.38l-9.33,5.71c-.71,3.07-.13,6.46,1.72,10.17l.53.79-.02.07c.54.96,1.14,1.95,1.81,2.99l.21.34c.48.8,1.41.94,2.77.42,2.04-.69,3.9-1.56,5.59-2.63,4.82-2.96,4.54-8.53-.84-16.71l-.47-.77Z" fill="#bf7958"/></g><g id="arm_0_Layer0_0_FILL-2"><path d="M13.24,51.56c2.03-1.37,4.2-2.55,6.53-3.54,2.49,2.92,4.04,6.6,4.65,11.04-.99.39-1.93.84-2.83,1.34-2.09,1.12-3.97,2.6-5.63,4.43-1.08,1.2-2.43,1.84-4.06,1.93-1.64.04-3.08-.47-4.32-1.53-1.18-1.1-1.8-2.48-1.87-4.14-.11-1.6.39-3.03,1.51-4.28,1.32-1.43,2.71-2.71,4.15-3.84.61-.5,1.24-.97,1.89-1.41Z" fill="#bf7958"/><path d="M33.2,46.79c1.3.99,2.08,2.3,2.34,3.92.21,1.64-.18,3.08-1.17,4.34-.96,1.32-2.23,2.11-3.81,2.36-2.2.3-4.24.85-6.14,1.65-.61-4.44-2.16-8.12-4.65-11.04,2.83-1.12,5.85-1.91,9.07-2.37,1.57-.18,3.03.2,4.37,1.13Z" fill="#e7f3fc"/></g><g id="arm_0_Layer0_1_FILL-2"><path d="M17.25,47.31l3.77-1.71,6.03,13.65-3.7,1.7-6.1-13.64Z" fill="#bfd4e5"/></g><g id="hand_0_Layer0_0_FILL-2"><path d="M12.38,74.11l.72-.62c2.74-3.11,4.16-6.24,4.26-9.4.94,7.16-.72,10.52-4.98,10.09v-.07Z" fill="#a8603f"/><path d="M7.77,56.04c.67-.6,1.34-.55,2.01.14l7.57,7.91c-.1,3.16-1.52,6.29-4.26,9.4l-.72.62v.07c-.77.79-1.61,1.6-2.52,2.43l-.29.28c-.67.65-1.6.55-2.79-.29-1.79-1.19-3.37-2.51-4.74-3.97-3.91-4.1-2.22-9.42,5.08-15.96l.65-.63Z" fill="#bf7958"/></g><g id="leg_0_Layer0_0_FILL"><path d="M56.22,84.26l-.64-4.99-11.9-.03.64,4.99,11.85.03h.05Z" fill="#4c4eaa"/><path d="M62.87,90.27l-6.7-6.01-11.85-.03.7,5.99,17.85.05Z" fill="#fff"/><path d="M63.24,93.26l-.37-3-17.85-.05.32,3,17.9.05Z" fill="#eea160"/><path d="M54.57,70.08c-.25-1.6-1.1-2.96-2.55-4.1-1.41-1.14-3.02-1.7-4.82-1.71s-3.19.56-4.28,1.69c-1.09,1.13-1.5,2.49-1.25,4.09l2.01,9.19,11.9.03-1.01-9.19Z" fill="#676ac6"/></g><g id="legBend_0_Layer0_0_FILL"><path d="M33.82,82.79c1.53-1.55,2.77-3.13,3.72-4.75l-9.63-7.05c-.27,1.07-.79,2.06-1.58,2.97l7.49,8.83Z" fill="#4c4eaa"/><path d="M30.65,92.01l2.22-1.65-10.72-13.38-2.47,1.79,10.98,13.24Z" fill="#eea160"/><path d="M32.87,90.36l.95-7.57-7.49-8.83-4.19,3.02,10.72,13.38Z" fill="#fff"/><path d="M35.44,60.65c-1.38-.75-2.8-.92-4.26-.51-1.48.43-2.58,1.32-3.28,2.67-.68,1.33-.77,2.75-.27,4.28.46,1.37.56,2.66.3,3.87l-.03.03,9.63,7.05c2.26-4.19,2.53-8.85.79-13.98-.5-1.53-1.46-2.66-2.88-3.41Z" fill="#676ac6"/></g><g id="body_0_Layer0_0_FILL"><path d="M53.52,69.33l-.26-4.94-26.08,2.12.26,4.94,26.08-2.12Z" fill="#bfd4e5"/><path d="M52.49,74.62c.74-1.33,1.09-3.09,1.03-5.29l-26.08,2.12c.17,2.19.7,3.89,1.57,5.08l23.48-1.9Z" fill="#676ac6"/><path d="M55.33,50.54c.42-3.64-.42-5.31-2.53-5.01l-27.16,2.2c-2.12.04-2.78,1.83-1.99,5.37l3.53,13.39,26.08-2.12,2.07-13.85Z" fill="#e7f3fc"/></g><g id="body_0_Layer0_0_MEMBER_0_FILL"><path d="M45.82,38.64c-1.91-1.55-4.14-2.22-6.68-2.01s-4.69,1.23-6.42,3.08c-1.7,1.94-2.49,4.16-2.36,6.65,0,.17.03.33.07.5.2,2.25,1.19,4.11,2.95,5.57,1.92,1.65,4.15,2.37,6.69,2.16s4.68-1.28,6.41-3.23c1.59-1.73,2.38-3.73,2.35-6,.02-.17.03-.34.02-.5-.13-2.49-1.14-4.57-3.03-6.22Z" fill="#a8603f"/></g><g id="body_0_Layer0_0_MEMBER_1_FILL"><path d="M37.87,65.84l-12.17,2.24c.32,1.61.65,3.32,1.01,5.13l10.73-2.37c.21-1.55.36-3.22.44-5Z" fill="#d78b49"/><path d="M37.87,65.84c.08-2.34.02-4.86-.18-7.55-4.05-2.51-7.37-6.55-9.96-12.12l-3.99-.53c-1.06,2.56-.41,10.04,1.95,22.44l12.17-2.24Z" fill="#eea160"/></g><g id="body_0_Layer0_0_MEMBER_2_FILL"><path d="M55.29,65.68l-12.3-.25c.27,1.75.58,3.38.95,4.88l10.88.62c.17-1.85.32-3.6.47-5.25Z" fill="#d78b49"/><path d="M42.38,57.91c.08,2.7.29,5.2.61,7.52l12.3.25c1.05-12.68.92-20.2-.39-22.57l-3.9,1.17c-1.99,5.94-4.86,10.48-8.62,13.63Z" fill="#eea160"/></g><g id="body_0_Layer0_0_MEMBER_3_FILL"><path d="M28.23,46.53l-1.59,3.74,11.76,6.66,1.59-3.79-11.76-6.61M50.97,44.68l-10.98,8.46,1.97,3.5,10.97-8.51-1.97-3.45Z" fill="#bfd4e5"/><path d="M41.96,56.64l-1.97-3.5-1.59,3.79,3.56-.29Z" fill="#e7f3fc"/></g><g id="shadow_0_Layer0_0_FILL"><path d="M51.56,34.56c-3.14-2.6-6.94-3.9-11.41-3.9s-8.31,1.3-11.53,3.9c-3.14,2.67-4.71,5.85-4.71,9.55s1.57,6.85,4.71,9.45c3.22,2.67,7.06,4,11.53,4s8.27-1.33,11.41-4c3.22-2.6,4.83-5.75,4.83-9.45s-1.61-6.88-4.83-9.55Z" fill="url(#Dégradé_sans_nom_51)"/></g><g id="head_0_Layer0_0_FILL"><path d="M55.35,4.96l-2.9-4.55c-9.73-.77-18.85-.47-27.35.9-4.77.67-6.93,2.93-6.5,6.8l.2,1.7c.63-2.37,2.75-3.8,6.35-4.3,8.5-1.33,17.62-1.62,27.35-.85l2.85.3M65.85,9.36l.15-1.25c.47-3.77-1.35-6.03-5.45-6.8l-4.55,3.75,4.6.45c2.87.53,4.62,1.82,5.25,3.85Z" fill="#454a51"/><path d="M60.6,5.51l-4.6-.45-.4.3-.25-.4-2.85-.3c-9.73-.77-18.85-.48-27.35.85-3.6.5-5.72,1.93-6.35,4.3l2.25,19.4c.37,2.9,2.27,4.35,5.7,4.35h31.1c3.47,0,5.37-1.45,5.7-4.35l2.3-19.85c-.63-2.03-2.38-3.32-5.25-3.85Z" fill="#3c3e41"/></g><g id="head_0_Layer0_1_FILL"><path d="M18.05,28.76c-1.57,1.57-2.35,3.47-2.35,5.7s.78,4.13,2.35,5.7c1.6,1.63,3.48,2.45,5.65,2.45s4.1-.82,5.7-2.45c1.53-1.57,2.3-3.47,2.3-5.7s-.77-4.13-2.3-5.7c-1.6-1.63-3.5-2.45-5.7-2.45s-4.05.82-5.65,2.45M20.35,37.91c-.93-.93-1.4-2.08-1.4-3.45s.47-2.45,1.4-3.45c.93-.93,2.05-1.4,3.35-1.4,1.37,0,2.52.47,3.45,1.4.93,1,1.4,2.15,1.4,3.45,0,1.37-.47,2.52-1.4,3.45-.93.97-2.08,1.45-3.45,1.45s-2.42-.48-3.35-1.45M55.05,28.76c-1.57,1.57-2.35,3.47-2.35,5.7s.78,4.13,2.35,5.7c1.6,1.63,3.48,2.45,5.65,2.45s4.1-.82,5.7-2.45c1.53-1.57,2.3-3.47,2.3-5.7s-.77-4.13-2.3-5.7c-1.6-1.63-3.5-2.45-5.7-2.45s-4.05.82-5.65,2.45M57.35,31.01c.93-.93,2.05-1.4,3.35-1.4s2.48.47,3.45,1.4c.93,1,1.4,2.15,1.4,3.45,0,1.37-.47,2.52-1.4,3.45-.97.97-2.12,1.45-3.45,1.45s-2.42-.48-3.35-1.45c-.97-.93-1.45-2.08-1.45-3.45s.48-2.45,1.45-3.45Z" fill="#bf7958"/><path d="M18.95,34.46c0,1.37.47,2.52,1.4,3.45.93.97,2.05,1.45,3.35,1.45,1.37,0,2.52-.48,3.45-1.45.93-.93,1.4-2.08,1.4-3.45,0-1.3-.47-2.45-1.4-3.45-.93-.93-2.08-1.4-3.45-1.4s-2.42.47-3.35,1.4c-.93,1-1.4,2.15-1.4,3.45M60.7,29.61c-1.3,0-2.42.47-3.35,1.4-.97,1-1.45,2.15-1.45,3.45,0,1.37.48,2.52,1.45,3.45.93.97,2.05,1.45,3.35,1.45s2.48-.48,3.45-1.45c.93-.93,1.4-2.08,1.4-3.45s-.47-2.45-1.4-3.45c-.97-.93-2.12-1.4-3.45-1.4Z" fill="#a8603f"/></g><g id="head_0_Layer0_2_FILL"><path d="M54.4,48.01c3.6-.47,5.63-2.4,6.1-5.8l2.65-26H21.3l3.2,31.8h29.9Z" fill="#bf7958"/></g><g id="head_0_Layer0_3_FILL"><path d="M29.75,31.86c0,1.17.37,2.17,1.1,3,.8.9,1.8,1.35,3,1.35,1.13,0,2.08-.45,2.85-1.35.77-.83,1.15-1.83,1.15-3s-.38-2.17-1.15-3c-.77-.87-1.72-1.3-2.85-1.3-1.2,0-2.2.43-3,1.3-.73.83-1.1,1.83-1.1,3M32.25,32.01v-.25c.03-.7.27-1.3.7-1.8.47-.53,1.03-.8,1.7-.8.7,0,1.28.27,1.75.8.43.5.67,1.1.7,1.8v.25c-.03.67-.27,1.25-.7,1.75-.47.53-1.05.8-1.75.8-.67,0-1.23-.27-1.7-.8-.43-.5-.67-1.08-.7-1.75M47.8,34.86c.83.9,1.83,1.35,3,1.35s2.1-.45,2.8-1.35c.83-.83,1.25-1.83,1.25-3,0-1.17-.42-2.17-1.25-3-.7-.87-1.63-1.3-2.8-1.3s-2.17.43-3,1.3c-.73.83-1.1,1.83-1.1,3s.37,2.17,1.1,3M51.35,29.96c.47.5.72,1.1.75,1.8v.25c-.03.67-.28,1.25-.75,1.75-.43.53-.98.8-1.65.8-.67,0-1.27-.27-1.8-.8-.4-.5-.62-1.08-.65-1.75v-.35c.03-.63.25-1.2.65-1.7.53-.53,1.13-.8,1.8-.8.67,0,1.22.27,1.65.8Z" fill="#fff"/><path d="M32.25,31.76v.25c.03.67.27,1.25.7,1.75.47.53,1.03.8,1.7.8.7,0,1.28-.27,1.75-.8.43-.5.67-1.08.7-1.75v-.25c-.03-.7-.27-1.3-.7-1.8-.47-.53-1.05-.8-1.75-.8-.67,0-1.23.27-1.7.8-.43.5-.67,1.1-.7,1.8M52.1,31.76c-.03-.7-.28-1.3-.75-1.8-.43-.53-.98-.8-1.65-.8-.67,0-1.27.27-1.8.8-.4.5-.62,1.07-.65,1.7v.35c.03.67.25,1.25.65,1.75.53.53,1.13.8,1.8.8.67,0,1.22-.27,1.65-.8.47-.5.72-1.08.75-1.75v-.25Z" fill="#3c3e41"/></g><g id="head_0_Layer0_3_MEMBER_0_FILL"><path d="M39.3,28.71l.2-2.85-10.8-.5-.15,2.85,10.75.5M45.6,25.86l.2,2.85,10.75-.5-.15-2.85-10.8.5Z" fill="#3c3e41"/></g><g id="head_0_Layer0_3_MEMBER_1_FILL"><path d="M42,36.71c-2.37,0-4.37.48-6,1.45-1.53.87-2.4,1.9-2.6,3.1-.07.17-.07.35,0,.55.07.17.17.32.3.45s.3.22.5.25c2.87.43,5.57.1,8.1-1,2.5,1.1,5.2,1.43,8.1,1,.2-.03.37-.12.5-.25s.23-.28.3-.45c.07-.2.08-.38.05-.55-.23-1.2-1.12-2.23-2.65-3.1-1.67-.97-3.67-1.45-6-1.45h-.6Z" fill="#3c3e41"/></g><g id="head_0_Layer0_3_MEMBER_2_FILL"><path d="M44.8,36.61c.67-.47,1-1.02,1-1.65,0-.6-.33-1.15-1-1.65-.67-.43-1.48-.65-2.45-.65s-1.73.22-2.4.65c-.67.5-1,1.05-1,1.65,0,.63.33,1.18,1,1.65.67.5,1.47.75,2.4.75s1.78-.25,2.45-.75Z" fill="#955435"/></g><g id="head_0_Layer0_4_FILL"><path d="M22.1,16.71h-.05c-.67.1-1.22.43-1.65,1-.43.5-.6,1.08-.5,1.75l1.9,16c.07.63.37,1.18.9,1.65.53.4,1.13.55,1.8.45h.05c.67-.07,1.2-.37,1.6-.9s.57-1.15.5-1.85l-1.9-15.9c-.1-.7-.42-1.25-.95-1.65-.5-.4-1.07-.58-1.7-.55M60.6,17.26c-.5.4-.8.95-.9,1.65l-1.9,15.9c-.07.7.1,1.32.5,1.85.4.53.93.83,1.6.9h.05c.63.1,1.22-.05,1.75-.45.57-.47.88-1.02.95-1.65l1.9-16c.1-.67-.07-1.25-.5-1.75-.43-.57-.98-.9-1.65-1h-.05c-.67-.03-1.25.15-1.75.55Z" fill="#3c3e41"/></g><g id="head_0_Layer0_5_FILL"><path d="M57.35,20.11c4.27-1.37,6.4-2.95,6.4-4.75s-2.13-3.22-6.4-4.35c-4.2-1.13-9.32-1.62-15.35-1.45-5.97.2-11.08.98-15.35,2.35-4.23,1.4-6.35,2.98-6.35,4.75s2.12,3.25,6.35,4.35c4.27,1.17,9.38,1.65,15.35,1.45,6.03-.17,11.15-.95,15.35-2.35Z" fill="#3c3e41"/></g></g></g></svg>