<?xml version="1.0" encoding="UTF-8"?><svg id="Calque_2" xmlns="http://www.w3.org/2000/svg" viewBox="0 0 74 74"><g id="KenneyPuzzleAssets2"><g id="bubble"><path d="M59.6,14.4c-6.2-6.27-13.72-9.4-22.55-9.4h-.05c-8.87,0-16.4,3.13-22.6,9.4-6.27,6.27-9.4,13.8-9.4,22.6s3.12,16.38,9.35,22.65l.05.05c6.2,6.2,13.73,9.3,22.6,9.3h.05c8.83,0,16.35-3.1,22.55-9.3,6.27-6.27,9.4-13.83,9.4-22.7s-3.13-16.33-9.4-22.6" fill="#a34100"/><path d="M10.85,10.9C18.02,3.63,26.73,0,37,0h.05c10.23,0,18.93,3.63,26.1,10.9,7.23,7.23,10.85,15.93,10.85,26.1s-3.62,18.98-10.85,26.25c-7.2,7.17-15.9,10.75-26.1,10.75h-.05c-10.23,0-18.93-3.58-26.1-10.75l-.05-.05h-.05C3.6,55.93,0,47.2,0,37S3.63,18.13,10.9,10.9h-.05" fill="#a34100"/><path d="M20,54c-4.67-4.7-7-10.37-7-17s2.35-12.25,7.05-16.95h.05c4.63-4.7,10.27-7.05,16.9-7.05h.05c6.6,0,12.23,2.35,16.9,7.05,4.7,4.7,7.05,10.35,7.05,16.95s-2.35,12.35-7.05,17.05c-4.63,4.63-10.27,6.95-16.9,6.95h-.05c-6.67,0-12.32-2.32-16.95-6.95l-.05-.05" fill="#e86a17"/><path d="M59.6,14.4l-5.65,5.65c-4.67-4.7-10.3-7.05-16.9-7.05h-.05c-6.63,0-12.27,2.35-16.9,7.05h-.05c-4.7,4.7-7.05,10.35-7.05,16.95s2.33,12.3,7,17l-5.65,5.65c-6.23-6.27-9.35-13.82-9.35-22.65s3.13-16.33,9.4-22.6c6.2-6.27,13.73-9.4,22.6-9.4h.05c8.83,0,16.35,3.13,22.55,9.4" fill="#f07625"/><path d="M53.95,20.05l5.65-5.65c6.27,6.27,9.4,13.8,9.4,22.6s-3.13,16.43-9.4,22.7c-6.2,6.2-13.72,9.3-22.55,9.3h-.05c-8.87,0-16.4-3.1-22.6-9.3l-.05-.05,5.65-5.65.05.05c4.63,4.63,10.28,6.95,16.95,6.95h.05c6.63,0,12.27-2.32,16.9-6.95,4.7-4.7,7.05-10.38,7.05-17.05s-2.35-12.25-7.05-16.95" fill="#c95b12"/></g></g></svg>