<?xml version="1.0" encoding="UTF-8"?><svg id="Calque_2" xmlns="http://www.w3.org/2000/svg" viewBox="0 0 75 69"><g id="KenneyPuzzleAssets2"><g id="heart"><path d="M64.75,10.3c-3.47-3.57-7.6-5.33-12.4-5.3-5-.03-9.2,1.8-12.6,5.5l-.05.05c-.83.87-1.57,1.82-2.2,2.85l-2.25-2.9c-3.5-3.7-7.7-5.53-12.6-5.5-4.83-.03-8.97,1.73-12.4,5.3l-.2.2c-3.33,3.53-5.02,7.8-5.05,12.8,0,4.77,1.53,8.88,4.6,12.35l.2.2.2.2,14.05,14.95,11.35,12.05,1.3.8.8.15.75-.15,1.35-.8,25.4-27,.2-.2.2-.2.65-.75c2.63-3.3,3.95-7.17,3.95-11.6-.03-5-1.72-9.27-5.05-12.8l-.2-.2" fill="#932828"/><path d="M52.4,0c6.13-.03,11.43,2.23,15.9,6.8l.05.05.15.15.1.1c4.2,4.47,6.33,9.87,6.4,16.2-.03,5.57-1.68,10.43-4.95,14.6l-.1.15-1,1.15-.2.2-.1.1-25.4,27-.1.1c-.93.93-2.07,1.62-3.4,2.05h-.1l-1.5.3-.65.05-2.55-.45.25.1c-1.43-.47-2.58-1.18-3.45-2.15L6.45,39.6l-1-1.1C1.82,34.2,0,29.13,0,23.3c.07-6.33,2.22-11.73,6.45-16.2l.1-.1.2-.2-.1.05C11.08,2.25,16.42-.03,22.65,0h.05c5.67-.03,10.6,1.87,14.8,5.7C41.6,1.87,46.55-.03,52.35,0h.05" fill="#932828"/><path d="M29.7,45.35l-13.85-14.75-.15-.15-.05-.05-.05-.05c-1.73-1.97-2.6-4.3-2.6-7v-.05c0-2.87.97-5.3,2.9-7.3h.05c1.8-2,4.02-3,6.65-3h.1c2.6,0,4.83.98,6.7,2.95l.05.05,1.35,1.75c1,1.57,2.38,2.65,4.15,3.25l2.55.45,2.75-.5c1.73-.67,3.1-1.78,4.1-3.35l1.15-1.5-.15.1.05-.05.25-.2c1.8-1.97,4.02-2.95,6.65-2.95h.1c2.6,0,4.83.98,6.7,2.95l.05.05c1.9,2,2.85,4.43,2.85,7.3v.05c0,2.7-.87,5.03-2.6,7l-.05.05-.15.2-21.7,23.05-7.8-8.3" fill="#c83e3e"/><path d="M59.1,15.95c-1.87-1.97-4.1-2.95-6.7-2.95h-.1c-2.63,0-4.85.98-6.65,2.95l-.25.2-.05.05.15-.1-1.15,1.5c-1,1.57-2.37,2.68-4.1,3.35l-2.75.5-2.55-.45c-1.77-.6-3.15-1.68-4.15-3.25l-1.35-1.75-.05-.05c-1.87-1.97-4.1-2.95-6.7-2.95h-.1c-2.63,0-4.85,1-6.65,3h-.05c-1.93,2-2.9,4.43-2.9,7.3v.05c0,2.7.87,5.03,2.6,7l.05.05.05.05.15.15,13.85,14.75-5.65,5.65-14.05-14.95-.2-.2-.2-.2c-3.07-3.47-4.6-7.58-4.6-12.35.03-5,1.72-9.27,5.05-12.8l.2-.2c3.43-3.57,7.57-5.33,12.4-5.3,4.9-.03,9.1,1.8,12.6,5.5l2.25,2.9c.63-1.03,1.37-1.98,2.2-2.85l.05-.05c3.4-3.7,7.6-5.53,12.6-5.5,4.8-.03,8.93,1.73,12.4,5.3l-5.65,5.65" fill="#d44c4c"/><path d="M59.1,15.95l5.65-5.65.2.2c3.33,3.53,5.02,7.8,5.05,12.8,0,4.43-1.32,8.3-3.95,11.6l-.65.75-.2.2-.2.2-25.4,27-1.35.8-.75.15-.8-.15-1.3-.8-11.35-12.05,5.65-5.65,7.8,8.3,21.7-23.05.15-.2.05-.05c1.73-1.97,2.6-4.3,2.6-7v-.05c0-2.87-.95-5.3-2.85-7.3l-.05-.05" fill="#aa3030"/></g></g></svg>