<?xml version="1.0" encoding="UTF-8"?><svg id="Calque_2" xmlns="http://www.w3.org/2000/svg" viewBox="0 0 74.05 74.05"><g id="KenneyPuzzleAssets2"><g id="octogon"><polyline points="37 69.03 59.6 59.72 69 37.13 59.6 14.42 37 5.03 14.3 14.42 5 37.13 14.3 59.72 37 69.03" fill="#c45a8f"/><path d="M64.25,12.53l9.4,22.7c.53,1.27.53,2.55,0,3.85l-9.4,22.6c-.57,1.27-1.48,2.17-2.75,2.7l-22.6,9.3c-1.27.5-2.53.5-3.8,0l-22.7-9.3c-1.27-.53-2.17-1.45-2.7-2.75L.4,39.03c-.53-1.27-.53-2.53,0-3.8L9.7,12.53c.5-1.27,1.4-2.17,2.7-2.7L35.1.42c1.27-.57,2.55-.57,3.85,0l22.6,9.4c1.27.53,2.17,1.43,2.7,2.7" fill="#c45a8f"/><polyline points="60.35 37.13 53.5 53.57 37 60.38 20.45 53.63 13.65 37.13 20.45 20.57 37 13.67 53.5 20.53 60.35 37.13" fill="#f9c"/><polyline points="37 13.67 20.45 20.57 13.65 37.13 5 37.13 14.3 14.42 37 5.03 37 13.67" fill="#ffd2e8"/><polyline points="37 60.38 37 69.03 14.3 59.72 5 37.13 13.65 37.13 20.45 53.63 37 60.38" fill="#ffaad4"/><polyline points="69 37.13 60.35 37.13 53.5 20.53 37 13.67 37 5.03 59.6 14.42 69 37.13" fill="#ffaad4"/><polyline points="37 60.38 53.5 53.57 60.35 37.13 69 37.13 59.6 59.72 37 69.03 37 60.38" fill="#f080b8"/></g></g></svg>