<?xml version="1.0" encoding="UTF-8"?><svg id="Calque_2" xmlns="http://www.w3.org/2000/svg" viewBox="0 0 74.01 74"><g id="KenneyPuzzleAssets2"><g id="pentagram"><path d="M40.1,1.05l31.95,24.4c.8.63,1.37,1.45,1.7,2.45.33.97.35,1.97.05,3l-12.2,39.6c-.33,1.03-.95,1.88-1.85,2.55-.87.63-1.85.95-2.95.95H17.2c-1.1,0-2.08-.32-2.95-.95-.9-.67-1.5-1.52-1.8-2.55L.25,30.9c-.33-1-.33-2,0-3,.33-1,.92-1.82,1.75-2.45L34.05,1.05c.87-.7,1.87-1.05,3-1.05s2.12.35,3.05,1.05" fill="#932828"/><polyline points="37.05 5 5 29.4 17.2 69 56.8 69 69 29.4 37.05 5" fill="#932828"/><polyline points="14.3 32.4 37.05 15.05 59.75 32.4 50.9 61 23.1 61 14.3 32.4" fill="#c83e3e"/><polyline points="37.05 5 37.05 15.05 14.3 32.4 5 29.4 37.05 5" fill="#ee6b6b"/><polyline points="37.05 15.05 37.05 5 69 29.4 56.8 69 50.9 61 59.75 32.4 37.05 15.05" fill="#d44c4c"/><polyline points="5 29.4 14.3 32.4 23.1 61 17.2 69 5 29.4" fill="#d44c4c"/><polyline points="50.9 61 56.8 69 17.2 69 23.1 61 50.9 61" fill="#aa3030"/></g></g></svg>