<?xml version="1.0" encoding="UTF-8"?><svg id="Calque_2" xmlns="http://www.w3.org/2000/svg" viewBox="0 0 74 74"><g id="KenneyPuzzleAssets2"><g id="square"><path d="M72.55,40.55l-32,32c-1,.97-2.18,1.45-3.55,1.45s-2.53-.48-3.5-1.45L1.5,40.55C.5,39.55,0,38.37,0,37c0-1.37.5-2.53,1.5-3.5L33.5,1.5c.97-1,2.13-1.5,3.5-1.5s2.55.5,3.55,1.5l32,32c.97.97,1.45,2.13,1.45,3.5,0,1.37-.48,2.55-1.45,3.55" fill="#c97900"/><polyline points="5 37 37 69 69 37 37 5 5 37" fill="#c97900"/><polyline points="57.7 37 37 57.7 16.3 37 37 16.3 57.7 37" fill="#fc0"/><polyline points="69 37 57.7 37 37 16.3 37 5 69 37" fill="#ffd52e"/><polyline points="16.3 37 5 37 37 5 37 16.3 16.3 37" fill="#ffe57e"/><polyline points="57.7 37 69 37 37 69 5 37 16.3 37 37 57.7 57.7 37" fill="#ecbd00"/></g></g></svg>