<?xml version="1.0" encoding="UTF-8"?><svg id="Calque_2" xmlns="http://www.w3.org/2000/svg" viewBox="0 0 74 69.85"><g id="KenneyPuzzleAssets2"><g id="star5"><polyline points="5 27.95 16.3 44.85 17.2 65 37.05 59.65 56.75 65 57.75 44.85 69 27.95 49.75 20.85 37.05 5 24.2 20.85 5 27.95" fill="#44690b"/><path d="M.85,30.75C.28,29.88,0,28.93,0,27.9c0-1.03.32-1.97.95-2.8.57-.87,1.35-1.48,2.35-1.85l17.9-6.6L33.2,1.85c.63-.8,1.43-1.33,2.4-1.6.97-.33,1.95-.33,2.95,0,.97.3,1.77.85,2.4,1.65l11.85,14.75,17.95,6.6c.93.37,1.72.98,2.35,1.85.6.83.9,1.77.9,2.8,0,1-.28,1.95-.85,2.85l-10.45,15.7-.95,18.8c-.03,1-.37,1.92-1,2.75s-1.43,1.42-2.4,1.75l-2.9.1-18.4-5-18.55,5-2.9-.1c-.97-.37-1.77-.95-2.4-1.75-.63-.83-.97-1.75-1-2.75l-.85-18.8L.85,30.75" fill="#44690b"/><path d="M24.85,54.65l-.1.05-.45-10.2-.35-2.05-1-2.05-5.65-8.45,9.7-3.6c.7-.27,1.35-.62,1.95-1.05l1.5-1.4,6.6-8.1,6.45,8.05,1.5,1.45,2,1.05,9.75,3.6-5.65,8.5c-.43.63-.75,1.3-.95,2-.23.63-.37,1.3-.4,2l-.5,10.25-.15-.05-9.95-2.7-2.1-.3-2.05.3-10.15,2.7" fill="#80be1f"/><path d="M17.3,31.95l-12.3-4,19.2-7.1,12.85-15.85v12.8l-6.6,8.1-1.5,1.4c-.6.43-1.25.78-1.95,1.05l-9.7,3.6" fill="#aadb5c"/><polyline points="17.2 65 16.3 44.85 5 27.95 17.3 31.95 22.95 40.4 23.95 42.45 24.3 44.5 24.75 54.7 24.85 54.65 17.2 65" fill="#8cc92c"/><path d="M37.05,5l12.7,15.85,19.25,7.1-11.25,16.9-1,20.15-7.65-10.35.15.05.5-10.25c.03-.7.17-1.37.4-2,.2-.7.52-1.37.95-2l5.65-8.5-9.75-3.6-2-1.05-1.5-1.45-6.45-8.05V5" fill="#8cc92c"/><polyline points="17.2 65 24.85 54.65 35 51.95 37.05 51.65 39.15 51.95 49.1 54.65 56.75 65 37.05 59.65 17.2 65" fill="#6da615"/></g></g></svg>