<?xml version="1.0" encoding="UTF-8"?><svg id="Calque_2" xmlns="http://www.w3.org/2000/svg" viewBox="0 0 74.02 74.03"><g id="KenneyPuzzleAssets2"><g id="star4"><path d="M38.6.3c1.07.33,1.92.98,2.55,1.95l12.25,18.35,18.4,12.25c.93.63,1.58,1.48,1.95,2.55.37,1.07.37,2.13,0,3.2-.37,1.07-1.02,1.92-1.95,2.55l-18.4,12.25-12.25,18.4c-.63.93-1.48,1.58-2.55,1.95-1.07.37-2.13.37-3.2,0-1.07-.37-1.92-1.02-2.55-1.95l-12.25-18.4L2.25,41.15c-.97-.63-1.62-1.48-1.95-2.55-.4-1.07-.4-2.13,0-3.2.33-1.07.98-1.92,1.95-2.55l18.35-12.25L32.85,2.25c.63-.97,1.48-1.62,2.55-1.95,1.07-.4,2.13-.4,3.2,0" fill="#9a9a9a"/><polyline points="69 37 49.8 24.2 37 5 24.2 24.2 5 37 24.2 49.8 37 69 49.8 49.8 69 37" fill="#9a9a9a"/><polyline points="37 19.45 43.15 28.65 44.15 29.85 45.35 30.85 54.6 37 45.35 43.15 44.15 44.15 43.15 45.35 37 54.6 30.85 45.35 29.85 44.15 28.65 43.15 19.45 37 28.65 30.85 29.85 29.85 30.85 28.65 37 19.45" fill="#e5e5e5"/><polyline points="37 5 49.8 24.2 69 37 54.6 37 45.35 30.85 44.15 29.85 43.15 28.65 37 19.45 37 5" fill="#f0f0f0"/><polyline points="37 69 24.2 49.8 5 37 19.45 37 28.65 43.15 29.85 44.15 30.85 45.35 37 54.6 37 69" fill="#f0f0f0"/><polyline points="37 5 37 19.45 30.85 28.65 29.85 29.85 28.65 30.85 19.45 37 5 37 24.2 24.2 37 5" fill="#fff"/><polyline points="54.6 37 69 37 49.8 49.8 37 69 37 54.6 43.15 45.35 44.15 44.15 45.35 43.15 54.6 37" fill="#c9c9c9"/></g></g></svg>