<?xml version="1.0" encoding="UTF-8"?><svg id="Calque_2" xmlns="http://www.w3.org/2000/svg" viewBox="0 0 73.99 71.25"><g id="KenneyPuzzleAssets2"><g id="triangle"><path d="M41.58.05l31.9,64c.5,1.03.63,2.13.4,3.3-.27,1.13-.85,2.07-1.75,2.8-.93.73-1.98,1.1-3.15,1.1H4.98c-1.17,0-2.2-.37-3.1-1.1-.93-.77-1.52-1.72-1.75-2.85-.27-1.13-.13-2.23.4-3.3L32.63,0" fill="#a34100"/><polyline points="68.98 66.25 37.08 2.25 4.98 66.25 68.98 66.25" fill="#a34100"/><polyline points="37.08 20.15 56.08 58.25 17.93 58.25 37.08 20.15" fill="#e86a17"/><polyline points="37.08 20.15 37.08 2.25 68.98 66.25 56.08 58.25 37.08 20.15" fill="#f07625"/><polyline points="56.08 58.25 68.98 66.25 4.98 66.25 17.93 58.25 56.08 58.25" fill="#c95b12"/><polyline points="37.08 2.25 37.08 20.15 17.93 58.25 4.98 66.25 37.08 2.25" fill="#ff9048"/></g></g></svg>